<?xml version="1.0" encoding="UTF-8"?>
<svg width="50px" height="50px" viewBox="0 0 50 50" version="1.1" xmlns="http://www.w3.org/2000/svg" xmlns:xlink="http://www.w3.org/1999/xlink">
    <!-- Generator: Sketch 57.1 (83088) - https://sketch.com -->
    <title>Artboard</title>
    <desc>Created with Sketch.</desc>
    <g id="Artboard" stroke="none" stroke-width="1" fill="none" fill-rule="evenodd">
        <g id="Oval" fill="#FFFFFF" fill-rule="nonzero">
            <circle cx="25" cy="25" r="25"></circle>
        </g>
        <g id="Fill-1-(1)" transform="translate(10.000000, 14.000000)" fill="#3B2711">
            <path d="M30.3429,5.42621 C30.131,5.26256 29.5696,4.8288 29.2772,3.72053 C29.0735,2.94822 27.745,0.707031 25.4857,0.707031 C25.1258,0.707031 24.7523,0.763902 24.3764,0.875608 C22.4259,1.45674 21.5058,2.85365 20.6939,4.08617 C20.4348,4.47944 20.19,4.85097 19.9293,5.16596 C19.6825,5.46423 18.3605,6.55163 16.9617,7.70328 C15.6998,8.74173 14.3947,9.8152 13.7383,10.4256 C13.5025,10.6439 13.2664,10.8603 13.0312,11.0762 C12.172,11.8631 11.2835,12.6768 10.4782,13.5751 C9.97017,14.1415 9.38209,14.5331 8.75927,14.9481 C8.67135,15.0067 8.58248,15.0657 8.49361,15.1259 C8.19499,15.3267 7.84868,15.4233 7.51384,15.5167 C7.21153,15.6012 6.89933,15.6882 6.6164,15.8517 C6.55386,15.8877 6.51237,15.9601 6.50742,16.04 C6.50247,16.1153 6.53248,16.1857 6.58681,16.227 C6.90102,16.4684 7.30325,16.6634 7.75896,16.7969 C7.70221,16.8307 7.65209,16.8617 7.60481,16.8918 C7.40528,17.019 7.02853,17.2319 6.55143,17.5014 C4.58083,18.6146 0.913176,20.6868 0.468091,21.9608 C0.445874,22.0251 0.454929,22.0912 0.493573,22.1469 C0.559383,22.2419 0.704164,22.2803 0.810302,22.2276 C1.58728,21.8436 1.90116,21.7398 2.02489,21.7264 C1.93486,21.8783 1.52515,22.2376 1.3611,22.382 C1.13282,22.5819 1.12377,22.5878 1.14714,22.6514 L1.16904,22.7059 L1.2278,22.7059 L1.24265,22.707 C2.82819,22.4418 4.55577,21.7934 6.22649,21.1654 C7.97408,20.5086 9.6247,19.8886 11.0889,19.6902 C11.1318,19.6844 11.1976,19.6819 11.2848,19.6819 C11.4855,19.6819 11.7849,19.6965 12.1641,19.7154 C12.7943,19.7468 13.658,19.7894 14.6254,19.7894 C17.4593,19.7894 19.7363,19.4075 21.3923,18.6536 C23.6208,17.6399 25.0377,16.5533 25.9879,15.1314 C27.1136,13.4458 27.5426,11.2628 27.2992,8.45717 C27.2843,8.28527 27.4822,8.0263 27.7109,7.72631 C28.0296,7.30883 28.4249,6.79175 28.5993,6.11691 C28.7971,6.04247 29.1184,5.96879 29.4573,5.89103 C29.7678,5.81981 30.0891,5.74666 30.386,5.65841 C30.4227,5.64748 30.4477,5.61985 30.4544,5.58472 C30.4658,5.5211 30.4222,5.48726 30.3429,5.42621 Z" id="Path"></path>
        </g>
    </g>
</svg>