<?xml version="1.0" encoding="UTF-8"?>
<svg width="50px" height="50px" viewBox="0 0 50 50" version="1.1" xmlns="http://www.w3.org/2000/svg" xmlns:xlink="http://www.w3.org/1999/xlink">
    <!-- Generator: Sketch 57.1 (83088) - https://sketch.com -->
    <title>Artboard</title>
    <desc>Created with Sketch.</desc>
    <g id="Artboard" stroke="none" stroke-width="1" fill="none" fill-rule="evenodd">
        <g id="Oval" fill="#FFFFFF" fill-rule="nonzero">
            <circle cx="25" cy="25" r="25"></circle>
        </g>
        <g id="Fill-1" transform="translate(10.000000, 10.000000)" fill="#3B2711">
            <path d="M26.0000001,29.2846 L26.0000001,29.3174 C26.0000001,29.6946 25.6902,30 25.3075,30 L23.3571,30 C22.4723,30 21.731,29.3467 21.633,28.4802 L21.1477,24.2118 L21.0804,24.3119 C21.0492,24.3586 21.0121,24.4013 20.9705,24.4391 L17.8901,27.215 L18.3894,27.2813 C19.3929,27.4153 20.1556,28.2513 20.1927,29.2419 C20.1956,29.2667 20.1968,29.2918 20.1968,29.3174 C20.1968,29.6943 19.8867,30 19.5043,30 C19.5036,30 19.5024,30 19.5014,30 L8.24718,30 C8.24645,30 8.24596,30 8.24529,30 C8.2448,30 8.24407,30 8.24358,30 C8.16104,30 6.20632,29.9956 4.62285,29.6172 C4.22497,29.5222 3.76782,29.3226 3.22544,29.0073 C2.24144,28.4349 1.39713,27.6583 0.715787,26.6989 L0.678443,26.6461 C0.53016,26.4376 0.51231,26.1652 0.631533,25.9394 C0.645606,25.9131 0.66108,25.8878 0.677955,25.8639 L0.133685,25.1311 C-0.0804535,24.8428 -0.0326303,24.44 0.243404,24.2083 C0.379502,24.0931 0.531622,23.9333 0.612526,23.8252 C0.165851,22.5271 0.165851,22.4511 0.165851,22.3287 C0.165851,21.9262 0.417395,21.7275 0.775064,21.6064 L0.584685,21.0057 C0.514016,20.7831 0.563728,20.5405 0.716031,20.3623 C0.868578,20.1838 1.10203,20.0953 1.33712,20.1254 L1.55035,20.1535 L2.03869,18.1862 C2.10772,17.9073 2.34665,17.7009 2.63621,17.6699 C2.92394,17.6392 3.20406,17.7893 3.33254,18.0471 L3.41704,18.2162 L3.76758,17.604 C3.92226,17.334 4.24185,17.2005 4.5467,17.2794 C4.85106,17.3582 5.06307,17.6293 5.06307,17.9394 L5.06307,18.0647 L5.52284,17.9047 C5.85529,17.7886 6.22295,17.9378 6.37671,18.2505 C6.53042,18.5634 6.42119,18.9401 6.12304,19.1257 C6.02568,19.1873 3.67784,20.72 4.1088,23.9608 C4.41462,26.2593 6.43836,27.3111 7.58515,27.7275 C7.6075,27.283 7.64394,26.7585 7.70199,26.169 C8.06368,22.4957 9.43563,18.9659 11.6692,15.9613 C12.1932,15.2569 12.7101,14.6119 13.2056,14.0442 C14.6451,12.3952 15.918,11.1928 16.7326,10.4743 C16.892,10.3336 17.0287,10.1734 17.1433,10 L25.8623,12.8303 L25.907,14.4732 C25.9479,15.9686 25.54,17.4267 24.7278,18.6898 C24.5077,19.0323 24.3927,19.4399 24.3958,19.869 L24.4496,27.6079 C25.3182,27.6871 26.0000001,28.4087 26.0000001,29.2846 Z M29.8776,4.85482 C29.7469,4.6642 29.5292,4.54657 29.2929,4.53853 L25.4321,4.40532 L24.504,3.02982 C24.3946,2.86762 24.2213,2.75567 24.0243,2.72032 L19.9011,1.97716 L19.0072,0.372762 C18.853,0.0963655 18.5298,-0.049687 18.2111,0.0153291 C17.8929,0.0798466 17.6568,0.338914 17.6308,0.651839 L17,8.21123 L25.7609,11 L25.7007,8.83608 L26.9388,8.67245 C28.0869,8.52047 29.0558,7.77587 29.4675,6.72907 L29.9519,5.49844 C30.0363,5.28513 30.0084,5.04526 29.8776,4.85482 Z" id="Shape"></path>
        </g>
    </g>
</svg>