<?xml version="1.0" encoding="UTF-8"?>
<svg width="50px" height="50px" viewBox="0 0 50 50" version="1.1" xmlns="http://www.w3.org/2000/svg" xmlns:xlink="http://www.w3.org/1999/xlink">
    <!-- Generator: Sketch 57.1 (83088) - https://sketch.com -->
    <title>Artboard</title>
    <desc>Created with Sketch.</desc>
    <g id="Artboard" stroke="none" stroke-width="1" fill="none" fill-rule="evenodd">
        <g id="sunriseIcon">
            <g id="Oval" fill="#FFFFFF" fill-rule="nonzero">
                <circle cx="25" cy="25" r="25"></circle>
            </g>
            <g id="Combined-Shape-(3)" transform="translate(11.000000, 11.000000)" fill="#000000">
                <path d="M21.3386,3.16207 C20.8298,3.16207 20.4036,2.76393 20.3751,2.24961 L20.3068,1.01993 C20.2773,0.487418 20.685,0.0311871 21.2175,0.00165049 C21.75,-0.0293507 22.2064,0.380134 22.2359,0.912769 L22.304,2.14232 C22.3336,2.67532 21.926,3.13107 21.3929,3.1606 C21.3748,3.16158 21.3568,3.16207 21.3386,3.16207 Z M25.3359,5.03105 C25.1471,5.21938 24.8996,5.31372 24.6526,5.31372 C24.4052,5.31372 24.1583,5.21938 23.9695,5.03105 C23.5923,4.65342 23.5923,4.0417 23.9695,3.66456 L25.0965,2.53753 C25.4742,2.16039 26.0854,2.16039 26.4629,2.53753 C26.8401,2.91467 26.8401,3.52639 26.4629,3.9039 L25.3359,5.03105 Z M28.0874,6.76456 L26.8578,6.69633 C26.3257,6.6663 25.8694,7.07445 25.8398,7.60696 C25.8103,8.13996 26.218,8.59582 26.7505,8.62536 L27.9801,8.69359 C27.9987,8.69444 28.0168,8.69493 28.0349,8.69493 C28.5436,8.69493 28.9699,8.29692 28.9985,7.78247 C29.028,7.24983 28.6204,6.79409 28.0874,6.76456 Z M16.8813,16.8662 L5.03046,28.7167 C4.84164,28.9055 4.59472,29 4.34768,29 C4.10028,29 3.85275,28.9055 3.66442,28.7167 L0.283137,25.3355 C-0.0943789,24.9584 -0.0943789,24.3468 0.283137,23.9691 L7.47827,16.7743 L7.03436,16.3304 C6.65672,15.9528 6.65672,15.341 7.03436,14.964 L9.29994,12.6984 C9.4807,12.5172 9.72664,12.4157 9.98271,12.4157 C10.2393,12.4157 10.4847,12.5172 10.666,12.6984 L11.1098,13.1423 L12.1334,12.1191 C12.4753,11.7772 13.0346,11.7772 13.3764,12.1191 L16.8813,15.6238 C17.223,15.9652 17.2225,16.5249 16.8813,16.8662 Z M13.8107,9.60605 C13.7154,10.08 13.918,10.7475 14.2594,11.0892 L17.9105,14.7403 C18.2524,15.0822 18.9199,15.2844 19.3939,15.1894 L22.7179,14.5249 C23.1919,14.43 23.3,14.0729 22.9582,13.731 L15.2693,6.04176 C14.9274,5.69989 14.5703,5.80816 14.4754,6.28208 L13.8107,9.60605 Z M26.7285,11.1274 C26.7285,11.3835 26.627,11.6289 26.4458,11.8107 L25.3196,12.9367 C24.9779,13.2781 24.4185,13.2781 24.0768,12.9367 L16.0635,4.92377 C15.7217,4.5819 15.7217,4.02266 16.0635,3.68079 L17.1897,2.55474 C17.5668,2.17759 18.1786,2.17759 18.5561,2.55474 L26.4458,10.4442 C26.627,10.6254 26.7285,10.8709 26.7285,11.1274 Z" id="Shape"></path>
            </g>
        </g>
    </g>
</svg>