<?xml version="1.0" encoding="UTF-8"?>
<svg width="50px" height="50px" viewBox="0 0 50 50" version="1.1" xmlns="http://www.w3.org/2000/svg" xmlns:xlink="http://www.w3.org/1999/xlink">
    <!-- Generator: Sketch 57.1 (83088) - https://sketch.com -->
    <title>Artboard</title>
    <desc>Created with Sketch.</desc>
    <g id="Artboard" stroke="none" stroke-width="1" fill="none" fill-rule="evenodd">
        <g id="Oval" fill="#FFFFFF" fill-rule="nonzero">
            <circle cx="25" cy="25" r="25"></circle>
        </g>
        <g id="Combined-Shape" transform="translate(9.000000, 12.000000)" fill="#3B2711">
            <path d="M16.2513,5.0024 L16.2513,1.05166 C16.2513,0.470793 15.7792,0 15.1967,0 C14.6141,0 14.142,0.470793 14.142,1.05166 L14.142,5.13284 C13.1615,5.2744 12.218,5.52635 11.3232,5.87548 L10.5206,3.94345 C10.2976,3.40668 9.68071,3.15197 9.1424,3.37436 C8.6043,3.59647 8.34885,4.21155 8.5716,4.74839 L9.37886,6.69144 C9.39441,6.72885 9.41187,6.76489 9.43108,6.7995 C8.61394,7.2851 7.85456,7.85835 7.16495,8.506 C7.11911,8.42546 7.06175,8.34966 6.99287,8.28098 L4.0098,5.30654 C3.59812,4.89569 2.93043,4.89569 2.51847,5.30654 C2.10644,5.71732 2.10644,6.38309 2.51847,6.79387 L5.50148,9.76838 C5.59441,9.86105 5.70036,9.93281 5.81344,9.98368 C5.22385,10.7354 4.71369,11.5532 4.29525,12.4235 C4.19213,12.3066 4.0613,12.2109 3.90735,12.1472 L1.95871,11.3423 C1.42033,11.1202 0.803476,11.3749 0.580445,11.9115 C0.357695,12.4482 0.613421,13.0633 1.15145,13.2857 L3.10016,14.0906 C3.23228,14.1451 3.36876,14.1708 3.50334,14.1708 C3.53722,14.1708 3.57095,14.1692 3.60444,14.166 C3.2887,15.1629 3.08687,16.21 3.01399,17.2905 L0.5,17.2905 L0.5,19.1341 L31.5,19.1341 L31.5,17.2905 L28.986,17.2905 C28.9017,16.0403 28.6448,14.835 28.2385,13.7002 L29.2419,13.2857 C29.7799,13.0633 30.0356,12.4482 29.8126,11.9117 C29.5896,11.3749 28.9727,11.1202 28.4346,11.3423 L27.3738,11.7805 C26.8529,10.8331 26.2201,9.9562 25.4928,9.16913 L27.8748,6.79387 C28.2869,6.38309 28.2869,5.71732 27.8748,5.30654 C27.4632,4.89569 26.7952,4.89569 26.3832,5.30654 L23.9426,7.7401 C23.1197,7.09569 22.2179,6.54866 21.2532,6.11682 L21.8217,4.74839 C22.0445,4.21155 21.789,3.59647 21.2507,3.37436 C20.7129,3.15225 20.0957,3.40668 19.8727,3.94345 L19.2609,5.41617 C18.2981,5.16487 17.2906,5.02224 16.2513,5.0024 Z M27.1406,21.2238 L27.1406,23.0674 L4.85938,23.0674 L4.85938,21.2238 L27.1406,21.2238 Z M23.75,27 L23.75,25.1564 L8.25,25.1564 L8.25,27 L23.75,27 Z" id="Shape"></path>
        </g>
    </g>
</svg>