<?xml version="1.0" encoding="UTF-8"?>
<svg width="50px" height="50px" viewBox="0 0 50 50" version="1.1" xmlns="http://www.w3.org/2000/svg" xmlns:xlink="http://www.w3.org/1999/xlink">
    <!-- Generator: Sketch 57.1 (83088) - https://sketch.com -->
    <title>Artboard</title>
    <desc>Created with Sketch.</desc>
    <g id="Artboard" stroke="none" stroke-width="1" fill="none" fill-rule="evenodd">
        <g id="sunriseIcon">
            <g id="Oval" fill="#FFFFFF" fill-rule="nonzero">
                <circle cx="25" cy="25" r="25"></circle>
            </g>
            <g id="Combined-Shape-(2)" transform="translate(10.000000, 14.000000)" fill="#000000">
                <path d="M15.516,3.71698 C16.5874,3.71698 17.4571,2.88526 17.4571,1.85869 C17.4571,0.831713 16.5874,0 15.516,0 C14.4458,0 13.5761,0.831713 13.5761,1.85869 C13.5761,2.88526 14.4458,3.71698 15.516,3.71698 Z M22.9029,12.1928 C23.9251,12.1928 26.1914,10.718 27.8045,9.60851 C28.0608,9.43368 28.4098,9.46275 28.6324,9.67451 C28.8534,9.88627 28.8825,10.2226 28.6997,10.4665 C25.0093,14.9893 25.7031,20.1823 25.7031,20.1823 C25.7174,20.2546 25.7236,20.3265 25.7236,20.4051 C25.7236,21.6788 23.8608,22.1852 22.2366,22.483 C20.4476,22.8114 18.0915,22.9941 15.5898,23 L15.516,23 L15.4438,23 C12.9417,22.9941 10.5856,22.8114 8.79663,22.483 C7.17246,22.1852 5.30963,21.6803 5.30963,20.4051 C5.30963,20.3265 5.3162,20.2546 5.33055,20.1823 C5.33055,20.1823 6.02393,14.9905 2.33355,10.4665 C2.14944,10.2226 2.17978,9.88627 2.4008,9.67451 C2.62222,9.46275 2.97281,9.43368 3.22744,9.60851 C4.84219,10.718 7.10849,12.1928 8.13031,12.1928 C8.33206,12.1928 8.39766,12.1347 8.44441,12.0793 C8.86224,11.5866 8.74866,9.85877 8.10776,6.94601 C8.04379,6.65764 8.20248,6.3673 8.48582,6.25219 C8.76957,6.13865 9.09801,6.23215 9.26777,6.47652 C11.4717,9.6254 12.4809,10.287 12.9389,10.287 C13.5876,10.287 14.2473,8.49746 14.9042,4.96789 C14.9571,4.68698 15.2035,4.48112 15.4984,4.46579 L15.4984,4.46147 C15.5008,4.46147 15.504,4.46187 15.5072,4.46226 C15.5104,4.46265 15.5135,4.46304 15.516,4.46304 C15.519,4.46304 15.5221,4.46266 15.5253,4.46228 L15.5299,4.46176 L15.5353,4.46147 L15.5353,4.46579 C15.8297,4.48112 16.0765,4.68698 16.1294,4.96789 C16.7847,8.49746 17.4444,10.287 18.0931,10.287 C18.5511,10.287 19.5602,9.6254 21.7659,6.47652 C21.9373,6.23215 22.2641,6.13865 22.5474,6.25219 C22.8295,6.3673 22.9878,6.65764 22.9255,6.94601 C22.285,9.85877 22.171,11.5866 22.5892,12.0793 C22.6356,12.1347 22.7012,12.1928 22.9029,12.1928 Z M15.5832,21.2399 L15.5898,21.2399 C19.5668,21.2289 22.1968,20.7854 23.3564,20.4051 C22.1952,20.0228 19.5668,19.5793 15.5882,19.5686 L15.4438,19.5686 C11.4668,19.5793 8.83682,20.0228 7.67558,20.4051 C8.83682,20.7854 11.4668,21.2289 15.4438,21.2399 L15.4487,21.2399 C15.4608,21.2399 15.4721,21.2403 15.4833,21.2407 C15.4941,21.2411 15.5049,21.2415 15.516,21.2415 C15.5273,21.2415 15.5384,21.2411 15.5496,21.2407 C15.5608,21.2403 15.572,21.2399 15.5832,21.2399 Z M8.94384,4.10396 C8.94384,4.96003 8.22011,5.65384 7.32786,5.65384 C6.43561,5.65384 5.71189,4.96003 5.71189,4.10396 C5.71189,3.24906 6.43561,2.55525 7.32786,2.55525 C8.22011,2.55525 8.94384,3.24906 8.94384,4.10396 Z M23.5709,5.65384 C24.4647,5.65384 25.1872,4.96003 25.1872,4.10396 C25.1872,3.24906 24.4647,2.55525 23.5709,2.55525 C22.679,2.55525 21.9549,3.24906 21.9549,4.10396 C21.9549,4.96003 22.679,5.65384 23.5709,5.65384 Z M2.17978,8.5175 C2.17978,9.09463 1.69142,9.56097 1.08907,9.56097 C0.48836,9.56097 0,9.09463 0,8.5175 C0,7.94037 0.48836,7.47403 1.08907,7.47403 C1.69142,7.47403 2.17978,7.94037 2.17978,8.5175 Z M29.9089,9.56097 C30.5112,9.56097 31,9.09463 31,8.5175 C31,7.94037 30.5112,7.47403 29.9089,7.47403 C29.3086,7.47403 28.8198,7.94037 28.8198,8.5175 C28.8198,9.09463 29.3086,9.56097 29.9089,9.56097 Z" id="Shape"></path>
            </g>
        </g>
    </g>
</svg>