<svg width="21" height="20" viewBox="0 0 21 20" fill="none" xmlns="http://www.w3.org/2000/svg">
<path d="M19.5608 19.5H1.34833C1.17747 19.5 0.977234 19.4048 0.80056 19.1598C0.624423 18.9155 0.5 18.553 0.5 18.13V0.5H20.4091V18.13C20.4091 18.553 20.2847 18.9156 20.1087 19.1598C19.9321 19.4047 19.7319 19.5 19.5608 19.5Z" stroke="black"/>
<path fill-rule="evenodd" clip-rule="evenodd" d="M6.60703 5.51273C6.99079 5.4066 7.27271 5.05478 7.27271 4.63733C7.27271 4.13403 6.86598 3.72729 6.36457 3.72729C5.86126 3.72729 5.45453 4.13403 5.45453 4.63733C5.45453 4.97331 5.63715 5.26678 5.90907 5.42386V7.18048C5.90907 9.78729 7.94744 11.9091 10.4534 11.9091C12.9599 11.9091 15 9.78729 15 7.18048V5.42419C15.2717 5.26719 15.4545 4.97355 15.4545 4.63733C15.4545 4.13403 15.0478 3.72729 14.5464 3.72729C14.0435 3.72729 13.6363 4.13403 13.6363 4.63733C13.6363 5.05354 13.9169 5.40452 14.2998 5.51178V7.18048C14.2998 9.38775 12.574 11.1809 10.4534 11.1809C8.33335 11.1809 6.60703 9.38775 6.60703 7.18048V5.51273Z" fill="black"/>
<path d="M6.60703 5.51273L6.5404 5.27177L6.35703 5.32248V5.51273H6.60703ZM5.90907 5.42386H6.15907V5.27956L6.03412 5.20738L5.90907 5.42386ZM15 5.42419L14.8749 5.20773L14.75 5.27992V5.42419H15ZM14.2998 5.51178H14.5498V5.32217L14.3673 5.27104L14.2998 5.51178ZM6.67366 5.75368C7.16292 5.61839 7.52271 5.17012 7.52271 4.63733H7.02271C7.02271 4.93944 6.81867 5.19482 6.5404 5.27177L6.67366 5.75368ZM7.52271 4.63733C7.52271 3.9963 7.00439 3.47729 6.36457 3.47729V3.97729C6.72757 3.97729 7.02271 4.27176 7.02271 4.63733H7.52271ZM6.36457 3.47729C5.72319 3.47729 5.20453 3.99596 5.20453 4.63733H5.70453C5.70453 4.2721 5.99933 3.97729 6.36457 3.97729V3.47729ZM5.20453 4.63733C5.20453 5.06624 5.43798 5.44044 5.78403 5.64034L6.03412 5.20738C5.83632 5.09312 5.70453 4.88038 5.70453 4.63733H5.20453ZM6.15907 7.18048V5.42386H5.65907V7.18048H6.15907ZM10.4534 11.6591C8.09481 11.6591 6.15907 9.65871 6.15907 7.18048H5.65907C5.65907 9.91588 7.80007 12.1591 10.4534 12.1591V11.6591ZM14.75 7.18048C14.75 9.65857 12.8126 11.6591 10.4534 11.6591V12.1591C13.1071 12.1591 15.25 9.91602 15.25 7.18048H14.75ZM14.75 5.42419V7.18048H15.25V5.42419H14.75ZM15.1251 5.64064C15.4708 5.44084 15.7045 5.06649 15.7045 4.63733H15.2045C15.2045 4.88061 15.0725 5.09355 14.8749 5.20773L15.1251 5.64064ZM15.7045 4.63733C15.7045 3.9963 15.1862 3.47729 14.5464 3.47729V3.97729C14.9094 3.97729 15.2045 4.27176 15.2045 4.63733H15.7045ZM14.5464 3.47729C13.9055 3.47729 13.3863 3.99589 13.3863 4.63733H13.8863C13.8863 4.27217 14.1815 3.97729 14.5464 3.97729V3.47729ZM13.3863 4.63733C13.3863 5.16879 13.7445 5.61588 14.2324 5.75252L14.3673 5.27104C14.0892 5.19316 13.8863 4.9383 13.8863 4.63733H13.3863ZM14.5498 7.18048V5.51178H14.0498V7.18048H14.5498ZM10.4534 11.4309C12.7211 11.4309 14.5498 9.51655 14.5498 7.18048H14.0498C14.0498 9.25895 12.4268 10.9309 10.4534 10.9309V11.4309ZM6.35703 7.18048C6.35703 9.51657 8.1862 11.4309 10.4534 11.4309V10.9309C8.48049 10.9309 6.85703 9.25893 6.85703 7.18048H6.35703ZM6.35703 5.51273V7.18048H6.85703V5.51273H6.35703Z" fill="black"/>
</svg>
