<svg width="64" height="64" viewBox="0 0 64 64" fill="none" xmlns="http://www.w3.org/2000/svg">
<circle cx="32" cy="32" r="31" fill="white" stroke="white" stroke-width="2"/>
<mask id="mask0" mask-type="alpha" maskUnits="userSpaceOnUse" x="0" y="0" width="64" height="64">
<circle cx="32" cy="32" r="31" fill="white" stroke="white" stroke-width="2"/>
</mask>
<g mask="url(#mask0)">
<path fill-rule="evenodd" clip-rule="evenodd" d="M53.4287 60.0385C52.1774 60.3429 50.9252 60.4885 49.6909 60.4884C43.4063 60.4879 37.6183 56.7085 35.1445 50.8619C35.1175 50.7978 35.0904 50.7339 35.0642 50.6695C35.0536 50.6435 35.0435 50.6173 35.033 50.5913C35.0008 50.5111 34.9688 50.4306 34.938 50.3497C34.9334 50.3376 34.929 50.3255 34.9244 50.3133C34.8891 50.2202 34.8544 50.1268 34.8209 50.0329C34.8198 50.0299 34.8188 50.0269 34.8177 50.0239C34.7815 49.9226 34.7463 49.8209 34.7121 49.7188C34.7119 49.7182 34.7117 49.7177 34.7115 49.7171C34.6769 49.6136 34.6434 49.5098 34.611 49.4057C34.6087 49.3983 34.6066 49.3908 34.6043 49.3835C34.5743 49.2865 34.5449 49.1893 34.5168 49.0919C34.5076 49.06 34.499 49.0279 34.49 48.9958C34.4691 48.9221 34.4483 48.8484 34.4285 48.7744C34.3998 48.6666 34.3721 48.5583 34.3455 48.4494C34.3186 48.3392 34.2933 48.2287 34.2689 48.1181C34.2594 48.0751 34.2501 48.0311 34.2409 47.9872C34.2302 47.9368 34.2199 47.8865 34.2097 47.8362C34.2031 47.8032 34.1964 47.7706 34.1897 47.7368C34.1888 47.7323 34.1874 47.728 34.1865 47.7235C33.4552 43.9797 34.0976 40.1332 36.0231 36.8143C37.9585 33.4783 40.9988 30.9998 44.631 29.7785C44.8858 30.3573 45.0968 30.9578 45.2615 31.5724C42.0861 32.6346 39.4244 34.7866 37.7142 37.6935C35.9538 40.6855 35.3857 44.1687 36.0953 47.5511C36.0953 47.5513 36.0954 47.5516 36.0954 47.5518C36.0957 47.5535 36.0961 47.5548 36.0963 47.5565C36.1089 47.6164 36.1217 47.6762 36.1351 47.7359C36.1556 47.8291 36.1757 47.9159 36.196 47.9994C36.2259 48.122 36.2578 48.2438 36.2908 48.3652C36.2989 48.3949 36.3076 48.4244 36.3159 48.4541C36.3423 48.5484 36.3693 48.6423 36.3974 48.7356C36.4059 48.7638 36.4148 48.7918 36.4236 48.8199C36.454 48.9184 36.4854 49.0165 36.5178 49.1141C36.5244 49.1338 36.531 49.1533 36.5376 49.1728C36.5756 49.2855 36.6151 49.3974 36.6559 49.5087C36.6574 49.5127 36.6588 49.5167 36.6603 49.5206C37.7381 52.4527 39.7609 54.9184 42.4732 56.5655C44.6765 57.9036 47.1507 58.5905 49.6654 58.5904C50.7683 58.5904 51.8793 58.4582 52.9783 58.1908C60.4193 56.3809 64.9982 48.8639 63.1855 41.4343C62.4335 38.3523 60.7113 35.6983 58.2051 33.7593C55.8993 31.9754 53.0611 30.9535 50.1652 30.8543C50.1514 30.7949 50.1375 30.7359 50.1231 30.6773C49.9806 30.0932 49.8065 29.5135 49.603 28.9446C52.9444 28.9247 56.2371 29.9773 58.9682 31.9544C61.9947 34.1453 64.1493 37.3523 65.0356 40.9843C67.0967 49.4328 61.89 57.9804 53.4287 60.0385ZM32.548 47.1027C30.1075 46.9528 27.7284 46.0683 25.7705 44.5694C23.5104 42.8392 21.9588 40.4613 21.2833 37.6925C19.6681 31.0727 23.748 24.3749 30.3781 22.7622C33.1512 22.0876 35.9796 22.3697 38.5577 23.5777C40.7914 24.6243 42.6698 26.3268 43.9273 28.4219C40.0436 29.7855 36.795 32.4687 34.7132 36.0567C32.7586 39.4257 32.011 43.2908 32.548 47.1027ZM28.7098 16.2074H37.9046L33.3072 20.4741L28.7098 16.2074ZM29.6827 12.5114H36.9317L38.4009 14.696H28.2136L29.6827 12.5114ZM37.4319 46.4173C37.0452 43.6671 37.5935 40.8824 39.0191 38.4593C40.5108 35.924 42.8145 34.0333 45.5643 33.067C46.3751 38.8582 42.9551 44.4724 37.4319 46.4173ZM48.0937 43.7474C50.1794 40.3236 51.0018 36.3218 50.4483 32.383C52.9113 32.5354 55.3115 33.433 57.2777 34.9543C59.5103 36.6816 61.0444 39.0461 61.7145 41.7923C63.3297 48.4123 59.2498 55.1099 52.6197 56.7226C49.408 57.5039 46.0838 56.9896 43.2594 55.2744C41.5113 54.2127 40.0847 52.7695 39.0654 51.0635C42.8248 49.7432 46.0073 47.1727 48.0937 43.7474ZM66.5062 40.6267C65.5351 36.6466 63.1736 33.1322 59.8566 30.7309C56.6993 28.4452 52.8547 27.2878 48.9865 27.4479C47.2034 23.6272 44.0989 20.6082 40.1923 18.9135C39.8088 18.7473 39.3632 18.9227 39.1965 19.3054C39.03 19.6882 39.2057 20.1334 39.589 20.2997C43.305 21.9117 46.2262 24.8348 47.8146 28.5306C48.1623 29.3395 48.4441 30.1822 48.6522 31.0353C48.7075 31.2618 48.7584 31.4948 48.808 31.7477C48.808 31.7479 48.8081 31.7481 48.8081 31.7482C49.5659 35.6101 48.8529 39.5925 46.8004 42.962C44.86 46.1473 41.8819 48.5233 38.3662 49.7064C38.3027 49.5624 38.242 49.4169 38.1841 49.2703C38.1834 49.2686 38.1828 49.267 38.1822 49.2653C38.0708 48.9832 37.9702 48.6964 37.8794 48.406C37.8721 48.3827 37.8648 48.3594 37.8578 48.336C37.8158 48.1988 37.7758 48.0609 37.7384 47.9221C37.7375 47.9186 37.7367 47.9151 37.7358 47.9116C44.3482 45.6957 48.3472 38.8212 46.9027 31.9329C46.9027 31.9328 46.9027 31.9327 46.9027 31.9326C46.867 31.7627 46.835 31.6204 46.802 31.4851C46.5508 30.4558 46.1836 29.4581 45.7104 28.5197C45.7094 28.5177 45.7083 28.5159 45.7073 28.5139C45.7041 28.5076 45.7008 28.5016 45.6974 28.4954C44.308 25.7539 42.002 23.522 39.2006 22.2092C37.8576 21.5799 36.4242 21.175 34.9631 21.0004L40.3397 16.0106C40.6122 15.7575 40.6602 15.3443 40.4528 15.0358L40.4493 15.0305C40.4491 15.0304 40.4491 15.0303 40.4491 15.0302L37.9635 11.3344C37.8229 11.1254 37.5873 11 37.3352 11H29.2794C29.0272 11 28.7916 11.1254 28.651 11.3344L26.1616 15.036C25.9542 15.3445 26.0021 15.7577 26.2747 16.0107L31.6507 21.0002C31.1033 21.0654 30.5585 21.1627 30.0197 21.2937C22.5787 23.1037 17.9998 30.6208 19.8124 38.0503C20.5597 41.1133 22.3485 43.8544 24.8494 45.7688C27.147 47.5276 29.9599 48.5324 32.8327 48.6307C32.8465 48.69 32.8604 48.7488 32.8746 48.8072C32.9083 48.9455 32.944 49.0828 32.981 49.2194C32.9895 49.2511 32.9987 49.2828 33.0074 49.3144C33.0375 49.4237 33.0686 49.5325 33.1007 49.6407C33.1096 49.6704 33.1186 49.7002 33.1277 49.73C33.1628 49.8459 33.199 49.9611 33.2364 50.0757C33.2427 50.0954 33.2491 50.1151 33.2556 50.1348C33.3004 50.2705 33.3464 50.4054 33.3943 50.5392C30.0653 50.5561 26.7858 49.5149 24.0596 47.5513C21.0169 45.3597 18.8514 42.1453 17.9621 38.5003C17.0744 34.862 17.5132 31.0194 19.198 27.6802C20.8642 24.3778 23.6428 21.756 27.0221 20.2977C27.4058 20.1321 27.5824 19.6873 27.4166 19.3042C27.2507 18.9212 26.8051 18.7446 26.4216 18.9104C22.7173 20.509 19.6718 23.382 17.8463 27.0003C15.9998 30.66 15.5188 34.8712 16.4915 38.8581C17.4661 42.8524 19.8394 46.375 23.1741 48.777C26.1337 50.9088 29.6892 52.051 33.3034 52.0509C33.5386 52.0509 33.7742 52.0446 34.0098 52.035C36.851 58.1091 43.0148 62.0001 49.6908 62C51.0429 62 52.4163 61.8403 53.787 61.5069C63.0592 59.2516 68.7651 49.8848 66.5062 40.6267Z" fill="#979590"/>
</g>
</svg>
