<svg width="64" height="64" viewBox="0 0 64 64" fill="none" xmlns="http://www.w3.org/2000/svg">
<circle cx="32" cy="32" r="31" fill="white" stroke="white" stroke-width="2"/>
<mask id="mask0" mask-type="alpha" maskUnits="userSpaceOnUse" x="0" y="0" width="64" height="64">
<circle cx="32" cy="32" r="31" fill="white" stroke="white" stroke-width="2"/>
</mask>
<g mask="url(#mask0)">
<path fill-rule="evenodd" clip-rule="evenodd" d="M57.6967 67.1919L51.0494 60.3894C50.2692 59.5901 49.3049 59.0905 48.2945 58.8898V45.1684C48.5117 45.1871 48.7279 45.1962 48.944 45.1962C50.996 45.1962 52.9767 44.3719 54.4665 42.8474C56.3768 40.8926 57.1619 38.1121 56.5664 35.4097C56.4784 35.0105 56.1738 34.6995 55.784 34.6091C53.1437 34.0001 50.4263 34.8032 48.516 36.7584C48.4403 36.836 48.367 36.9152 48.2945 36.9952V31.4511C49.8843 30.2068 50.8173 28.293 50.8173 26.2208C50.8173 23.9475 49.6943 21.8633 47.8127 20.6469C47.4745 20.4283 47.0442 20.4283 46.7063 20.6469C44.8248 21.8633 43.7018 23.9475 43.7018 26.2208C43.7018 28.293 44.6348 30.2068 46.2242 31.4511V32.8417C44.5222 31.1165 42.1111 30.4092 39.7682 30.9503C39.3784 31.0402 39.0737 31.352 38.9858 31.7504C38.4551 34.1601 39.1552 36.6399 40.8583 38.3833C42.1873 39.7433 43.9533 40.4783 45.7838 40.4783C45.9304 40.4783 46.0771 40.4721 46.2242 40.463V44.7177C46.0897 44.5581 45.9494 44.4026 45.802 44.2521C43.7458 42.1484 40.8304 41.2719 37.9871 41.8972C37.757 40.254 36.3734 38.987 34.7058 38.987H28.0537L24.9544 34.6273C24.5159 34.0105 23.9702 33.4943 23.3552 33.0929C25.1614 32.3209 26.4343 30.495 26.4343 28.3701V25.8377H28.0302C28.6022 25.8377 29.0653 25.3634 29.0653 24.7783C29.0653 24.193 28.6022 23.7191 28.0302 23.7191H26.7191V22.0221C26.7191 20.3557 25.3943 19 23.7661 19H18.8722C17.2436 19 15.9191 20.3557 15.9191 22.0221V23.7191H14.6077C14.036 23.7191 13.5725 24.193 13.5725 24.7783C13.5725 25.3634 14.036 25.8377 14.6077 25.8377H16.4353V28.3701C16.4353 30.0194 17.203 31.4884 18.3909 32.425C16.0079 33.2024 14.277 35.4886 14.277 38.1814V49.7158C14.277 52.1947 15.6003 54.3623 17.5616 55.5207V62.3265H8.26099C6.46294 62.3265 5 63.8233 5 65.6633C5 67.5029 6.46294 69 8.26099 69H9.59355C10.1657 69 10.6288 68.5257 10.6288 67.9407C10.6288 67.3557 10.1657 66.8813 9.59355 66.8813H8.26099C7.60466 66.8813 7.07072 66.3349 7.07072 65.6633C7.07072 64.9915 7.60466 64.4451 8.26099 64.4451H18.5968C19.1684 64.4451 19.6319 63.9708 19.6319 63.3859V56.3018C20.0184 56.3752 20.4163 56.415 20.8234 56.415H22.8739V63.2668C22.8739 65.2603 21.2894 66.8813 19.3418 66.8813H17.8748C17.3031 66.8813 16.8396 67.3557 16.8396 67.9407C16.8396 68.5257 17.3031 69 17.8748 69H19.3418C22.431 69 24.9442 66.4282 24.9442 63.2668V56.415H28.7303V65.6633C28.7303 67.5029 30.1932 69 31.9909 69C33.7889 69 35.2516 67.5029 35.2516 65.6633V54.1694C35.2516 51.0081 32.7392 48.4363 29.6496 48.4363H24.6634V45.7226C24.7643 45.7559 24.8709 45.7737 24.9795 45.7737H34.7058C35.551 45.7737 36.3228 45.4478 36.909 44.9133C36.9718 47.105 37.8417 49.2067 39.4007 50.8029C41.0209 52.4605 43.1738 53.3564 45.4045 53.3564C45.6772 53.3564 45.9507 53.3424 46.2242 53.3154V58.8935C45.2198 59.0962 44.262 59.5942 43.4857 60.3894L36.8694 67.1604C36.465 67.5738 36.465 68.2446 36.8694 68.6583C37.2732 69.0722 37.9291 69.0722 38.3331 68.6583L44.9496 61.8878C46.2274 60.5793 48.307 60.5793 49.5857 61.8878L56.2329 68.6899C56.4351 68.8967 56.7001 69 56.965 69C57.2296 69 57.4946 68.8967 57.6967 68.6899C58.1011 68.2757 58.1011 67.6052 57.6967 67.1919ZM46.208 38.3406C44.773 38.465 43.3586 37.9455 42.3226 36.8858C41.287 35.8256 40.7786 34.3782 40.901 32.9097C42.3356 32.7849 43.7499 33.3047 44.7859 34.3645C45.8214 35.4247 46.3299 36.8725 46.208 38.3406ZM49.9799 38.2565C51.2241 36.9836 52.9329 36.3741 54.6581 36.5624C54.8417 38.3269 54.2464 40.0766 53.0026 41.3494C51.7584 42.6223 50.0496 43.2318 48.3245 43.0435C48.3058 42.8636 48.2973 42.6844 48.2945 42.5058V42.2996C48.3232 40.7951 48.9111 39.3501 49.9799 38.2565ZM47.2593 22.86C48.2012 23.7029 48.747 24.916 48.747 26.2212C48.747 27.526 48.2012 28.7392 47.2593 29.582C46.3177 28.7392 45.772 27.5264 45.772 26.2212C45.772 24.916 46.3177 23.7029 47.2593 22.86ZM24.364 28.3701C24.364 30.0227 23.0497 31.3677 21.4348 31.3677C19.8195 31.3677 18.5056 30.0227 18.5056 28.3701V25.8377H24.364V28.3701ZM17.9894 22.0221C17.9894 21.5237 18.3853 21.1187 18.8722 21.1187H23.7661C24.253 21.1187 24.6488 21.5237 24.6488 22.0221V23.7191H17.9894V22.0221ZM29.6496 50.555C31.5972 50.555 33.1813 52.1765 33.1813 54.1694V65.6633C33.1813 66.3349 32.6476 66.8813 31.9909 66.8813C31.3346 66.8813 30.8006 66.3349 30.8006 65.6633V55.3557C30.8006 54.771 30.3371 54.2964 29.7654 54.2964H20.8231C18.6357 54.2964 16.81 52.6815 16.4236 50.555H29.6496ZM34.7058 43.655H25.4437L23.4326 41.3415C23.0526 40.9041 22.3982 40.8652 21.9712 41.2536C21.5442 41.6425 21.5057 42.3122 21.8858 42.7496L22.5931 43.5626V48.4363H16.3473V38.1814C16.3473 36.0188 18.0668 34.2588 20.1804 34.2588C21.4024 34.2588 22.5615 34.8624 23.2803 35.8737L26.69 40.6694C26.8849 40.9435 27.1956 41.1056 27.527 41.1056H34.7058C35.3929 41.1056 35.9517 41.6773 35.9517 42.3805C35.9517 43.0828 35.3925 43.655 34.7058 43.655ZM46.1808 51.1901C44.2236 51.4289 42.2768 50.7494 40.8649 49.3049C39.4534 47.8604 38.7884 45.8674 39.0222 43.8649C40.9792 43.6248 42.9267 44.306 44.3386 45.7505C45.552 46.9922 46.2116 48.6395 46.2242 50.3497V50.4993C46.221 50.729 46.2076 50.9596 46.1808 51.1901Z" fill="#939185"/>
<path d="M57.6967 67.1919L57.5179 67.3666L57.518 67.3668L57.6967 67.1919ZM51.0494 60.3894L50.8705 60.5641L50.8706 60.5642L51.0494 60.3894ZM48.2945 58.8898H48.0445V59.095L48.2458 59.135L48.2945 58.8898ZM48.2945 45.1684L48.3159 44.9193L48.0445 44.896V45.1684H48.2945ZM54.4665 42.8474L54.6453 43.0222L54.6453 43.0222L54.4665 42.8474ZM56.5664 35.4097L56.3222 35.4635L56.3222 35.4635L56.5664 35.4097ZM55.784 34.6091L55.8405 34.3656L55.8402 34.3655L55.784 34.6091ZM48.516 36.7584L48.3372 36.5837L48.3371 36.5838L48.516 36.7584ZM48.2945 36.9952H48.0445V37.6436L48.4798 37.1631L48.2945 36.9952ZM48.2945 31.4511L48.1404 31.2543L48.0445 31.3293V31.4511H48.2945ZM47.8127 20.6469L47.9484 20.4369L47.9484 20.4369L47.8127 20.6469ZM46.7063 20.6469L46.842 20.8568L46.842 20.8568L46.7063 20.6469ZM46.2242 31.4511H46.4742V31.3293L46.3783 31.2543L46.2242 31.4511ZM46.2242 32.8417L46.0462 33.0172L46.4742 33.451V32.8417H46.2242ZM39.7682 30.9503L39.8243 31.1939L39.8244 31.1938L39.7682 30.9503ZM38.9858 31.7504L38.7417 31.6966L38.7417 31.6967L38.9858 31.7504ZM40.8583 38.3833L40.6795 38.558L40.6795 38.558L40.8583 38.3833ZM46.2242 40.463H46.4742V40.197L46.2087 40.2135L46.2242 40.463ZM46.2242 44.7177L46.033 44.8788L46.4742 45.4023V44.7177H46.2242ZM45.802 44.2521L45.6233 44.4268L45.6234 44.427L45.802 44.2521ZM37.9871 41.8972L37.7395 41.9318L37.777 42.1993L38.0408 42.1413L37.9871 41.8972ZM28.0537 38.987L27.8499 39.1319L27.9246 39.237H28.0537V38.987ZM24.9544 34.6273L24.7506 34.7722L24.7506 34.7722L24.9544 34.6273ZM23.3552 33.0929L23.257 32.863L22.8272 33.0467L23.2186 33.3022L23.3552 33.0929ZM26.4343 25.8377V25.5877H26.1843V25.8377H26.4343ZM26.7191 23.7191H26.4691V23.9691H26.7191V23.7191ZM15.9191 23.7191V23.9691H16.1691V23.7191H15.9191ZM16.4353 25.8377H16.6853V25.5877H16.4353V25.8377ZM18.3909 32.425L18.4684 32.6626L18.9124 32.5178L18.5457 32.2286L18.3909 32.425ZM17.5616 55.5207H17.8116V55.378L17.6887 55.3054L17.5616 55.5207ZM17.5616 62.3265V62.5765H17.8116V62.3265H17.5616ZM19.6319 56.3018L19.6785 56.0562L19.3819 55.9998V56.3018H19.6319ZM22.8739 56.415H23.1239V56.165H22.8739V56.415ZM24.9442 56.415V56.165H24.6942V56.415H24.9442ZM28.7303 56.415H28.9803V56.165H28.7303V56.415ZM24.6634 48.4363H24.4134V48.6863H24.6634V48.4363ZM24.6634 45.7226L24.7416 45.4852L24.4134 45.3771V45.7226H24.6634ZM36.909 44.9133L37.1589 44.9062L37.1432 44.3614L36.7405 44.7286L36.909 44.9133ZM39.4007 50.8029L39.2218 50.9776L39.2219 50.9777L39.4007 50.8029ZM46.2242 53.3154H46.4742V53.0396L46.1996 53.0666L46.2242 53.3154ZM46.2242 58.8935L46.2736 59.1386L46.4742 59.0981V58.8935H46.2242ZM43.4857 60.3894L43.6645 60.5642L43.6646 60.5641L43.4857 60.3894ZM36.8694 67.1604L37.0481 67.3352L37.0482 67.3351L36.8694 67.1604ZM36.8694 68.6583L37.0483 68.4837L37.0481 68.4836L36.8694 68.6583ZM38.3331 68.6583L38.1543 68.4836L38.1542 68.4837L38.3331 68.6583ZM44.9496 61.8878L45.1284 62.0625L45.1284 62.0625L44.9496 61.8878ZM49.5857 61.8878L49.4069 62.0625L49.4069 62.0625L49.5857 61.8878ZM56.2329 68.6899L56.4117 68.5151L56.4117 68.5151L56.2329 68.6899ZM57.6967 68.6899L57.8755 68.8646L57.8756 68.8645L57.6967 68.6899ZM46.208 38.3406L46.2296 38.5897L46.4397 38.5715L46.4571 38.3613L46.208 38.3406ZM42.3226 36.8858L42.1438 37.0605L42.1439 37.0605L42.3226 36.8858ZM40.901 32.9097L40.8793 32.6606L40.6693 32.6789L40.6518 32.8889L40.901 32.9097ZM44.7859 34.3645L44.9648 34.1899L44.9647 34.1898L44.7859 34.3645ZM49.9799 38.2565L49.8011 38.0817L49.8011 38.0817L49.9799 38.2565ZM54.6581 36.5624L54.9067 36.5365L54.8859 36.3358L54.6852 36.3139L54.6581 36.5624ZM53.0026 41.3494L53.1814 41.5241L53.1814 41.5241L53.0026 41.3494ZM48.3245 43.0435L48.0758 43.0693L48.0966 43.2701L48.2973 43.292L48.3245 43.0435ZM48.2945 42.5058H48.0445L48.0445 42.5097L48.2945 42.5058ZM48.2945 42.2996L48.0445 42.2949V42.2996H48.2945ZM47.2593 22.86L47.426 22.6737L47.2592 22.5245L47.0925 22.6737L47.2593 22.86ZM47.2593 29.582L47.0925 29.7683L47.2592 29.9175L47.426 29.7683L47.2593 29.582ZM18.5056 25.8377V25.5877H18.2556V25.8377H18.5056ZM24.364 25.8377H24.614V25.5877H24.364V25.8377ZM24.6488 23.7191V23.9691H24.8988V23.7191H24.6488ZM17.9894 23.7191H17.7394V23.9691H17.9894V23.7191ZM16.4236 50.555V50.305H16.124L16.1776 50.5997L16.4236 50.555ZM25.4437 43.655L25.255 43.8191L25.3298 43.905H25.4437V43.655ZM23.4326 41.3415L23.2439 41.5055L23.2439 41.5055L23.4326 41.3415ZM21.9712 41.2536L21.803 41.0687L21.8029 41.0688L21.9712 41.2536ZM21.8858 42.7496L21.697 42.9135L21.6972 42.9137L21.8858 42.7496ZM22.5931 43.5626H22.8431V43.4691L22.7817 43.3985L22.5931 43.5626ZM22.5931 48.4363V48.6863H22.8431V48.4363H22.5931ZM16.3473 48.4363H16.0973V48.6863H16.3473V48.4363ZM23.2803 35.8737L23.0765 36.0186L23.0765 36.0186L23.2803 35.8737ZM26.69 40.6694L26.4862 40.8143L26.4862 40.8143L26.69 40.6694ZM46.1808 51.1901L46.2111 51.4383L46.4065 51.4144L46.4291 51.2189L46.1808 51.1901ZM40.8649 49.3049L40.6861 49.4796L40.6861 49.4796L40.8649 49.3049ZM39.0222 43.8649L38.9918 43.6167L38.7967 43.6407L38.7739 43.8359L39.0222 43.8649ZM44.3386 45.7505L44.5174 45.5757L44.5174 45.5757L44.3386 45.7505ZM46.2242 50.3497H46.4742L46.4742 50.3479L46.2242 50.3497ZM46.2242 50.4993L46.4742 50.5028V50.4993H46.2242ZM57.8755 67.0172L51.2282 60.2147L50.8706 60.5642L57.5179 67.3666L57.8755 67.0172ZM51.2283 60.2148C50.4119 59.3784 49.4019 58.8549 48.3432 58.6446L48.2458 59.135C49.2079 59.3261 50.1264 59.8017 50.8705 60.5641L51.2283 60.2148ZM48.5445 58.8898V45.1684H48.0445V58.8898H48.5445ZM48.2731 45.4175C48.4975 45.4368 48.7209 45.4462 48.944 45.4462V44.9462C48.735 44.9462 48.5259 44.9374 48.3159 44.9193L48.2731 45.4175ZM48.944 45.4462C51.0639 45.4462 53.1089 44.5944 54.6453 43.0222L54.2877 42.6727C52.8445 44.1495 50.9281 44.9462 48.944 44.9462V45.4462ZM54.6453 43.0222C56.6154 41.0061 57.4239 38.1394 56.8105 35.3559L56.3222 35.4635C56.8999 38.0848 56.1382 40.779 54.2877 42.6727L54.6453 43.0222ZM56.8105 35.3559C56.7023 34.8648 56.3264 34.4783 55.8405 34.3656L55.7275 34.8526C56.0213 34.9208 56.2545 35.1562 56.3222 35.4635L56.8105 35.3559ZM55.8402 34.3655C53.114 33.7367 50.3078 34.5668 48.3372 36.5837L48.6948 36.9331C50.5448 35.0397 53.1734 34.2635 55.7279 34.8527L55.8402 34.3655ZM48.3371 36.5838C48.2584 36.6644 48.1829 36.7461 48.1092 36.8274L48.4798 37.1631C48.5511 37.0843 48.6222 37.0076 48.695 36.933L48.3371 36.5838ZM48.5445 36.9952V31.4511H48.0445V36.9952H48.5445ZM48.4486 31.648C50.0997 30.3557 51.0673 28.3689 51.0673 26.2208H50.5673C50.5673 28.2172 49.6688 30.058 48.1404 31.2543L48.4486 31.648ZM51.0673 26.2208C51.0673 23.8642 49.9025 21.7003 47.9484 20.4369L47.677 20.8568C49.486 22.0264 50.5673 24.0308 50.5673 26.2208H51.0673ZM47.9484 20.4369C47.5276 20.165 46.9911 20.1649 46.5705 20.4369L46.842 20.8568C47.0973 20.6917 47.4214 20.6916 47.677 20.8568L47.9484 20.4369ZM46.5705 20.4369C44.6165 21.7003 43.4518 23.8642 43.4518 26.2208H43.9518C43.9518 24.0308 45.0331 22.0264 46.842 20.8568L46.5705 20.4369ZM43.4518 26.2208C43.4518 28.3689 44.4194 30.3557 46.0701 31.648L46.3783 31.2543C44.8503 30.058 43.9518 28.2172 43.9518 26.2208H43.4518ZM45.9742 31.4511V32.8417H46.4742V31.4511H45.9742ZM46.4021 32.6661C44.6398 30.8798 42.1404 30.1458 39.7119 30.7067L39.8244 31.1938C42.0819 30.6725 44.4045 31.3532 46.0462 33.0172L46.4021 32.6661ZM39.712 30.7066C39.2257 30.8188 38.8498 31.2065 38.7417 31.6966L39.23 31.8043C39.2976 31.4975 39.5311 31.2615 39.8243 31.1939L39.712 30.7066ZM38.7417 31.6967C38.1931 34.1874 38.9166 36.7534 40.6795 38.558L41.0372 38.2086C39.3938 36.5263 38.7171 34.1328 39.23 31.8042L38.7417 31.6967ZM40.6795 38.558C42.0551 39.9657 43.8854 40.7283 45.7838 40.7283V40.2283C44.0212 40.2283 42.3195 39.5208 41.0371 38.2086L40.6795 38.558ZM45.7838 40.7283C45.9373 40.7283 46.0894 40.7219 46.2397 40.7125L46.2087 40.2135C46.0648 40.2224 45.9236 40.2283 45.7838 40.2283V40.7283ZM45.9742 40.463V44.7177H46.4742V40.463H45.9742ZM46.4153 44.5566C46.2772 44.3927 46.1328 44.2325 45.9807 44.0772L45.6234 44.427C45.766 44.5726 45.9021 44.7235 46.033 44.8788L46.4153 44.5566ZM45.9808 44.0773C43.8649 41.9126 40.8619 41.009 37.9334 41.653L38.0408 42.1413C40.799 41.5348 43.6267 42.3842 45.6233 44.4268L45.9808 44.0773ZM38.2347 41.8625C37.9882 40.1023 36.5044 38.737 34.7058 38.737V39.237C36.2424 39.237 37.5258 40.4058 37.7395 41.9318L38.2347 41.8625ZM34.7058 38.737H28.0537V39.237H34.7058V38.737ZM28.2574 38.8422L25.1581 34.4825L24.7506 34.7722L27.8499 39.1319L28.2574 38.8422ZM25.1581 34.4825C24.7011 33.8394 24.1323 33.3016 23.4919 32.8835L23.2186 33.3022C23.8081 33.687 24.3308 34.1815 24.7506 34.7722L25.1581 34.4825ZM23.4535 33.3228C25.3505 32.512 26.6843 30.5963 26.6843 28.3701H26.1843C26.1843 30.3937 24.9722 32.1299 23.257 32.863L23.4535 33.3228ZM26.6843 28.3701V25.8377H26.1843V28.3701H26.6843ZM26.4343 26.0877H28.0302V25.5877H26.4343V26.0877ZM28.0302 26.0877C28.7458 26.0877 29.3153 25.4959 29.3153 24.7783H28.8153C28.8153 25.2309 28.4587 25.5877 28.0302 25.5877V26.0877ZM29.3153 24.7783C29.3153 24.0604 28.7457 23.4691 28.0302 23.4691V23.9691C28.4587 23.9691 28.8153 24.3256 28.8153 24.7783H29.3153ZM28.0302 23.4691H26.7191V23.9691H28.0302V23.4691ZM26.9691 23.7191V22.0221H26.4691V23.7191H26.9691ZM26.9691 22.0221C26.9691 20.2231 25.5378 18.75 23.7661 18.75V19.25C25.2508 19.25 26.4691 20.4883 26.4691 22.0221H26.9691ZM23.7661 18.75H18.8722V19.25H23.7661V18.75ZM18.8722 18.75C17.1001 18.75 15.6691 20.2231 15.6691 22.0221H16.1691C16.1691 20.4883 17.3871 19.25 18.8722 19.25V18.75ZM15.6691 22.0221V23.7191H16.1691V22.0221H15.6691ZM15.9191 23.4691H14.6077V23.9691H15.9191V23.4691ZM14.6077 23.4691C13.8926 23.4691 13.3225 24.0603 13.3225 24.7783H13.8225C13.8225 24.3257 14.1794 23.9691 14.6077 23.9691V23.4691ZM13.3225 24.7783C13.3225 25.496 13.8925 26.0877 14.6077 26.0877V25.5877C14.1795 25.5877 13.8225 25.2308 13.8225 24.7783H13.3225ZM14.6077 26.0877H16.4353V25.5877H14.6077V26.0877ZM16.1853 25.8377V28.3701H16.6853V25.8377H16.1853ZM16.1853 28.3701C16.1853 30.0984 16.99 31.6388 18.2361 32.6213L18.5457 32.2286C17.416 31.338 16.6853 29.9405 16.6853 28.3701H16.1853ZM18.3134 32.1873C15.8278 32.9982 14.027 35.3801 14.027 38.1814H14.527C14.527 35.5971 16.188 33.4066 18.4684 32.6626L18.3134 32.1873ZM14.027 38.1814V49.7158H14.527V38.1814H14.027ZM14.027 49.7158C14.027 52.2852 15.3988 54.5336 17.4344 55.736L17.6887 55.3054C15.8018 54.1909 14.527 52.1042 14.527 49.7158H14.027ZM17.3116 55.5207V62.3265H17.8116V55.5207H17.3116ZM17.5616 62.0765H8.26099V62.5765H17.5616V62.0765ZM8.26099 62.0765C6.31949 62.0765 4.75 63.6906 4.75 65.6633H5.25C5.25 63.9559 6.60639 62.5765 8.26099 62.5765V62.0765ZM4.75 65.6633C4.75 67.6355 6.31948 69.25 8.26099 69.25V68.75C6.6064 68.75 5.25 67.3703 5.25 65.6633H4.75ZM8.26099 69.25H9.59355V68.75H8.26099V69.25ZM9.59355 69.25C10.3092 69.25 10.8788 68.6582 10.8788 67.9407H10.3788C10.3788 68.3931 10.0221 68.75 9.59355 68.75V69.25ZM10.8788 67.9407C10.8788 67.2232 10.3092 66.6313 9.59355 66.6313V67.1313C10.0221 67.1313 10.3788 67.4882 10.3788 67.9407H10.8788ZM9.59355 66.6313H8.26099V67.1313H9.59355V66.6313ZM8.26099 66.6313C7.74814 66.6313 7.32072 66.2023 7.32072 65.6633H6.82072C6.82072 66.4675 7.46118 67.1313 8.26099 67.1313V66.6313ZM7.32072 65.6633C7.32072 65.1241 7.74816 64.6951 8.26099 64.6951V64.1951C7.46117 64.1951 6.82072 64.8589 6.82072 65.6633H7.32072ZM8.26099 64.6951H18.5968V64.1951H8.26099V64.6951ZM18.5968 64.6951C19.3118 64.6951 19.8819 64.1034 19.8819 63.3859H19.3819C19.3819 63.8382 19.0249 64.1951 18.5968 64.1951V64.6951ZM19.8819 63.3859V56.3018H19.3819V63.3859H19.8819ZM19.5852 56.5474C19.9864 56.6236 20.3999 56.665 20.8234 56.665V56.165C20.4327 56.165 20.0504 56.1268 19.6785 56.0562L19.5852 56.5474ZM20.8234 56.665H22.8739V56.165H20.8234V56.665ZM22.6239 56.415V63.2668H23.1239V56.415H22.6239ZM22.6239 63.2668C22.6239 65.1277 21.1459 66.6313 19.3418 66.6313V67.1313C21.4329 67.1313 23.1239 65.3929 23.1239 63.2668H22.6239ZM19.3418 66.6313H17.8748V67.1313H19.3418V66.6313ZM17.8748 66.6313C17.1596 66.6313 16.5896 67.2231 16.5896 67.9407H17.0896C17.0896 67.4883 17.4466 67.1313 17.8748 67.1313V66.6313ZM16.5896 67.9407C16.5896 68.6583 17.1596 69.25 17.8748 69.25V68.75C17.4466 68.75 17.0896 68.393 17.0896 67.9407H16.5896ZM17.8748 69.25H19.3418V68.75H17.8748V69.25ZM19.3418 69.25C22.5745 69.25 25.1942 66.5608 25.1942 63.2668H24.6942C24.6942 66.2956 22.2875 68.75 19.3418 68.75V69.25ZM25.1942 63.2668V56.415H24.6942V63.2668H25.1942ZM24.9442 56.665H28.7303V56.165H24.9442V56.665ZM28.4803 56.415V65.6633H28.9803V56.415H28.4803ZM28.4803 65.6633C28.4803 67.6355 30.0498 69.25 31.9909 69.25V68.75C30.3367 68.75 28.9803 67.3703 28.9803 65.6633H28.4803ZM31.9909 69.25C33.9324 69.25 35.5016 67.6355 35.5016 65.6633H35.0016C35.0016 67.3703 33.6454 68.75 31.9909 68.75V69.25ZM35.5016 65.6633V54.1694H35.0016V65.6633H35.5016ZM35.5016 54.1694C35.5016 50.8755 32.8827 48.1863 29.6496 48.1863V48.6863C32.5957 48.6863 35.0016 51.1406 35.0016 54.1694H35.5016ZM29.6496 48.1863H24.6634V48.6863H29.6496V48.1863ZM24.9134 48.4363V45.7226H24.4134V48.4363H24.9134ZM24.5853 45.9601C24.7106 46.0014 24.8434 46.0237 24.9795 46.0237V45.5237C24.8983 45.5237 24.8181 45.5104 24.7416 45.4852L24.5853 45.9601ZM24.9795 46.0237H34.7058V45.5237H24.9795V46.0237ZM34.7058 46.0237C35.6168 46.0237 36.4478 45.6722 37.0774 45.0981L36.7405 44.7286C36.1978 45.2235 35.4852 45.5237 34.7058 45.5237V46.0237ZM36.6591 44.9205C36.7237 47.1739 37.6182 49.3357 39.2218 50.9776L39.5795 50.6282C38.0652 49.0777 37.22 47.0361 37.1589 44.9062L36.6591 44.9205ZM39.2219 50.9777C40.8887 52.6829 43.1059 53.6064 45.4045 53.6064V53.1064C43.2417 53.1064 41.153 52.2381 39.5795 50.6282L39.2219 50.9777ZM45.4045 53.6064C45.6857 53.6064 45.9674 53.592 46.2487 53.5642L46.1996 53.0666C45.9339 53.0928 45.6686 53.1064 45.4045 53.1064V53.6064ZM45.9742 53.3154V58.8935H46.4742V53.3154H45.9742ZM46.1747 58.6484C45.1223 58.8609 44.1191 59.3828 43.3068 60.2148L43.6646 60.5641C44.405 59.8057 45.3172 59.3316 46.2736 59.1386L46.1747 58.6484ZM43.3069 60.2147L36.6905 66.9857L37.0482 67.3351L43.6645 60.5642L43.3069 60.2147ZM36.6906 66.9856C36.1912 67.4962 36.1913 68.3222 36.6906 68.8331L37.0481 68.4836C36.7387 68.167 36.7388 67.6514 37.0481 67.3352L36.6906 66.9856ZM36.6904 68.8329C37.1924 69.3473 38.0099 69.3473 38.512 68.833L38.1542 68.4837C37.8483 68.7971 37.354 68.797 37.0483 68.4837L36.6904 68.8329ZM38.5119 68.8331L45.1284 62.0625L44.7708 61.7131L38.1543 68.4836L38.5119 68.8331ZM45.1284 62.0625C46.3081 60.8545 48.2263 60.8544 49.4069 62.0625L49.7645 61.7131C48.3878 60.3043 46.1466 60.3042 44.7707 61.7131L45.1284 62.0625ZM49.4069 62.0625L56.0541 68.8646L56.4117 68.5151L49.7645 61.7131L49.4069 62.0625ZM56.0541 68.8646C56.3047 69.121 56.6347 69.25 56.965 69.25V68.75C56.7654 68.75 56.5655 68.6725 56.4117 68.5151L56.0541 68.8646ZM56.965 69.25C57.2949 69.25 57.625 69.121 57.8755 68.8646L57.5179 68.5151C57.3641 68.6725 57.1642 68.75 56.965 68.75V69.25ZM57.8756 68.8645C58.3747 68.3533 58.375 67.5277 57.8754 67.0171L57.518 67.3668C57.8272 67.6828 57.8275 68.1981 57.5178 68.5152L57.8756 68.8645ZM46.1864 38.0916C44.8265 38.2095 43.4854 37.7176 42.5014 36.711L42.1439 37.0605C43.2317 38.1734 44.7195 38.7206 46.2296 38.5897L46.1864 38.0916ZM42.5015 36.7111C41.5174 35.7036 41.0336 34.328 41.1501 32.9305L40.6518 32.8889C40.5235 34.4285 41.0566 35.9475 42.1438 37.0605L42.5015 36.7111ZM40.9226 33.1588C42.2821 33.0405 43.623 33.5326 44.6072 34.5393L44.9647 34.1898C43.8768 33.0769 42.3891 32.5293 40.8793 32.6606L40.9226 33.1588ZM44.6071 34.5392C45.5911 35.5466 46.0748 36.9228 45.9589 38.32L46.4571 38.3613C46.5849 36.8222 46.0518 35.3027 44.9648 34.1899L44.6071 34.5392ZM50.1587 38.4312C51.3498 37.2127 52.9829 36.631 54.631 36.8109L54.6852 36.3139C52.883 36.1171 51.0984 36.7546 49.8011 38.0817L50.1587 38.4312ZM54.4094 36.5882C54.5854 38.2802 54.0148 39.9559 52.8238 41.1747L53.1814 41.5241C54.4781 40.1972 55.0979 38.3737 54.9067 36.5365L54.4094 36.5882ZM52.8239 41.1746C51.6328 42.3932 49.9996 42.9748 48.3516 42.7949L48.2973 43.292C50.0996 43.4887 51.8841 42.8514 53.1814 41.5241L52.8239 41.1746ZM48.5731 43.0177C48.5554 42.8469 48.5472 42.6753 48.5445 42.5018L48.0445 42.5097C48.0474 42.6935 48.0562 42.8803 48.0758 43.0693L48.5731 43.0177ZM48.5445 42.5058V42.2996H48.0445V42.5058H48.5445ZM48.5444 42.3044C48.572 40.8622 49.1353 39.4784 50.1587 38.4312L49.8011 38.0817C48.6868 39.2219 48.0744 40.7281 48.0445 42.2949L48.5444 42.3044ZM47.0926 23.0463C47.981 23.8413 48.497 24.9864 48.497 26.2212H48.997C48.997 24.8457 48.4215 23.5646 47.426 22.6737L47.0926 23.0463ZM48.497 26.2212C48.497 27.4556 47.981 28.6008 47.0926 29.3957L47.426 29.7683C48.4215 28.8775 48.997 27.5963 48.997 26.2212H48.497ZM47.426 29.3957C46.538 28.6008 46.022 27.456 46.022 26.2212H45.522C45.522 27.5968 46.0975 28.8775 47.0925 29.7683L47.426 29.3957ZM46.022 26.2212C46.022 24.9864 46.538 23.8413 47.426 23.0462L47.0925 22.6737C46.0974 23.5646 45.522 24.8457 45.522 26.2212H46.022ZM24.114 28.3701C24.114 29.8901 22.9062 31.1177 21.4348 31.1177V31.6177C23.1932 31.6177 24.614 30.1553 24.614 28.3701H24.114ZM21.4348 31.1177C19.963 31.1177 18.7556 29.8901 18.7556 28.3701H18.2556C18.2556 30.1553 19.676 31.6177 21.4348 31.6177V31.1177ZM18.7556 28.3701V25.8377H18.2556V28.3701H18.7556ZM18.5056 26.0877H24.364V25.5877H18.5056V26.0877ZM24.114 25.8377V28.3701H24.614V25.8377H24.114ZM18.2394 22.0221C18.2394 21.6563 18.5288 21.3687 18.8722 21.3687V20.8687C18.2418 20.8687 17.7394 21.3911 17.7394 22.0221H18.2394ZM18.8722 21.3687H23.7661V20.8687H18.8722V21.3687ZM23.7661 21.3687C24.1095 21.3687 24.3988 21.6563 24.3988 22.0221H24.8988C24.8988 21.3911 24.3965 20.8687 23.7661 20.8687V21.3687ZM24.3988 22.0221V23.7191H24.8988V22.0221H24.3988ZM24.6488 23.4691H17.9894V23.9691H24.6488V23.4691ZM18.2394 23.7191V22.0221H17.7394V23.7191H18.2394ZM29.6496 50.805C31.4537 50.805 32.9313 52.309 32.9313 54.1694H33.4313C33.4313 52.0439 31.7407 50.305 29.6496 50.305V50.805ZM32.9313 54.1694V65.6633H33.4313V54.1694H32.9313ZM32.9313 65.6633C32.9313 66.2024 32.5041 66.6313 31.9909 66.6313V67.1313C32.7911 67.1313 33.4313 66.4675 33.4313 65.6633H32.9313ZM31.9909 66.6313C31.478 66.6313 31.0506 66.2023 31.0506 65.6633H30.5506C30.5506 66.4675 31.1911 67.1313 31.9909 67.1313V66.6313ZM31.0506 65.6633V55.3557H30.5506V65.6633H31.0506ZM31.0506 55.3557C31.0506 54.6385 30.4806 54.0464 29.7654 54.0464V54.5464C30.1936 54.5464 30.5506 54.9036 30.5506 55.3557H31.0506ZM29.7654 54.0464H20.8231V54.5464H29.7654V54.0464ZM20.8231 54.0464C18.763 54.0464 17.0356 52.5244 16.6695 50.5103L16.1776 50.5997C16.5845 52.8386 18.5084 54.5464 20.8231 54.5464V54.0464ZM16.4236 50.805H29.6496V50.305H16.4236V50.805ZM34.7058 43.405H25.4437V43.905H34.7058V43.405ZM25.6324 43.491L23.6213 41.1775L23.2439 41.5055L25.255 43.8191L25.6324 43.491ZM23.6213 41.1776C23.1497 40.6347 22.3342 40.5854 21.803 41.0687L22.1395 41.4386C22.4623 41.1449 22.9555 41.1736 23.2439 41.5055L23.6213 41.1776ZM21.8029 41.0688C21.2751 41.5495 21.2283 42.3741 21.697 42.9135L22.0745 42.5856C21.7832 42.2503 21.8134 41.7356 22.1396 41.4385L21.8029 41.0688ZM21.6972 42.9137L22.4045 43.7267L22.7817 43.3985L22.0744 42.5855L21.6972 42.9137ZM22.3431 43.5626V48.4363H22.8431V43.5626H22.3431ZM22.5931 48.1863H16.3473V48.6863H22.5931V48.1863ZM16.5973 48.4363V38.1814H16.0973V48.4363H16.5973ZM16.5973 38.1814C16.5973 36.1514 18.2103 34.5088 20.1804 34.5088V34.0088C17.9233 34.0088 16.0973 35.8863 16.0973 38.1814H16.5973ZM20.1804 34.5088C21.3201 34.5088 22.4038 35.0721 23.0765 36.0186L23.484 35.7289C22.7192 34.6528 21.4848 34.0088 20.1804 34.0088V34.5088ZM23.0765 36.0186L26.4862 40.8143L26.8937 40.5246L23.484 35.7289L23.0765 36.0186ZM26.4862 40.8143C26.7271 41.1531 27.1131 41.3556 27.527 41.3556V40.8556C27.2781 40.8556 27.0426 40.7339 26.8937 40.5246L26.4862 40.8143ZM27.527 41.3556H34.7058V40.8556H27.527V41.3556ZM34.7058 41.3556C35.2494 41.3556 35.7017 41.8099 35.7017 42.3805H36.2017C36.2017 41.5447 35.5364 40.8556 34.7058 40.8556V41.3556ZM35.7017 42.3805C35.7017 42.9502 35.2491 43.405 34.7058 43.405V43.905C35.5359 43.905 36.2017 43.2155 36.2017 42.3805H35.7017ZM46.1505 50.9419C44.2712 51.1712 42.4016 50.5194 41.0437 49.1301L40.6861 49.4796C42.152 50.9794 44.1759 51.6866 46.2111 51.4383L46.1505 50.9419ZM41.0437 49.1301C39.6858 47.7405 39.0453 45.8228 39.2705 43.8939L38.7739 43.8359C38.5315 45.9121 39.221 47.9803 40.6861 49.4796L41.0437 49.1301ZM39.0527 44.113C40.9314 43.8825 42.8018 44.5359 44.1598 45.9252L44.5174 45.5757C43.0516 44.0761 41.0269 43.3671 38.9918 43.6167L39.0527 44.113ZM44.1598 45.9252C45.3271 47.1197 45.9621 48.7046 45.9742 50.3515L46.4742 50.3479C46.4612 48.5743 45.7769 46.8646 44.5174 45.5757L44.1598 45.9252ZM45.9742 50.3497V50.4993H46.4742V50.3497H45.9742ZM45.9742 50.4958C45.9711 50.7182 45.9581 50.9402 45.9325 51.1613L46.4291 51.2189C46.457 50.9789 46.4708 50.7399 46.4741 50.5028L45.9742 50.4958Z" fill="#E9E6E0"/>
</g>
</svg>
