<svg width="64" height="64" viewBox="0 0 64 64" fill="none" xmlns="http://www.w3.org/2000/svg">
<circle cx="32" cy="32" r="31" fill="#F8F4EC" stroke="white" stroke-width="2"/>
<mask id="mask0" mask-type="alpha" maskUnits="userSpaceOnUse" x="0" y="0" width="64" height="64">
<circle cx="32" cy="32" r="31" fill="white" stroke="white" stroke-width="2"/>
</mask>
<g mask="url(#mask0)">
<path fill-rule="evenodd" clip-rule="evenodd" d="M54.8009 37.3323C55.0933 37.2693 55.3989 37.3425 55.6321 37.5316C55.8648 37.721 56 38.0055 56 38.3063V54.4909C56 53.9407 55.5561 53.4948 55.0085 53.4948C54.4609 53.4948 54.0171 53.9407 54.0171 54.4909V39.5382L40.6611 42.4089V64.772L54.0171 61.9009V59.5C54.0171 60.0501 54.4609 60.4961 55.0085 60.4961C55.5561 60.4961 56 60.0501 56 59.5V62.7066C56 63.1763 55.6731 63.5822 55.2158 63.6806L39.8769 66.9778C39.8714 66.979 39.8656 66.9794 39.8602 66.9806C39.8385 66.9849 39.8164 66.9883 39.7944 66.991C39.7903 66.9915 39.7862 66.9921 39.7821 66.9927C39.7763 66.9935 39.7704 66.9943 39.7645 66.9949C39.7331 66.998 39.7014 67 39.6696 67C39.6375 67 39.6057 66.998 39.5744 66.9949C39.5643 66.9938 39.5546 66.9922 39.5445 66.991C39.5224 66.9883 39.5004 66.9849 39.4783 66.9806C39.4751 66.9801 39.4719 66.9796 39.4687 66.9791C39.4665 66.9787 39.4643 66.9783 39.462 66.9778L24.3304 63.7253L9.19907 66.9778C9.13006 66.9926 9.06036 67 8.99145 67C8.76639 67 8.54609 66.923 8.36793 66.7782C8.13514 66.5895 8 66.3047 8 66.0039V57.7881C8 57.7292 8.0051 57.6714 8.01487 57.6152L8.01709 60C8.01709 60.5501 8.46096 60.9961 9.00855 60.9961C9.49316 60.9961 9.89655 60.6468 9.98291 60.1851V64.772L23.3389 61.9012V39.5382L9.98291 42.4089L10 60C10 60.0633 9.99413 60.1251 9.98291 60.1851V57.7881C9.98291 57.2379 9.53904 56.792 8.99145 56.792C8.50256 56.792 8.09633 57.1474 8.01487 57.6152L8 41.6035C8 41.1338 8.32688 40.7276 8.78384 40.6296L24.1227 37.3319C24.1308 37.3304 24.1387 37.3293 24.1467 37.3283C24.1525 37.3275 24.1583 37.3267 24.1642 37.3258C24.1679 37.3251 24.1716 37.3245 24.1752 37.3239C24.1902 37.3212 24.2051 37.3186 24.2204 37.3168C24.2335 37.3154 24.2469 37.3146 24.2604 37.3138C24.2655 37.3135 24.2706 37.3132 24.2757 37.3129C24.2819 37.3127 24.288 37.3123 24.294 37.3119C24.306 37.3112 24.3179 37.3105 24.33 37.3105C24.345 37.3105 24.36 37.3115 24.3752 37.3125C24.3792 37.3128 24.3832 37.3131 24.3873 37.3133C24.3926 37.3137 24.3979 37.3139 24.4033 37.3142C24.4154 37.3148 24.4276 37.3154 24.4399 37.3168C24.4593 37.3191 24.4783 37.3226 24.4976 37.3262C24.5012 37.3267 24.5048 37.3271 24.5084 37.3276C24.5183 37.3288 24.5283 37.3301 24.538 37.3323L25.967 37.6393L22.7711 31.2092C22.7638 31.1943 22.7572 31.1796 22.7506 31.1647C22.1492 29.79 21.8444 28.3275 21.8444 26.817C21.8444 20.8525 26.6743 16 32.6109 16C38.5476 16 43.3771 20.8525 43.3771 26.817C43.3771 28.3275 43.0723 29.79 42.4713 31.1647C42.4647 31.1796 42.4577 31.1943 42.4504 31.2092L37.9726 40.2202L39.6696 40.5848L54.8009 37.3323ZM32.6109 17.9922C27.7675 17.9922 23.8273 21.9509 23.8273 26.817C23.8273 28.0419 24.0724 29.2274 24.5565 30.3415L32.6109 46.5493L40.6654 30.3415C41.1491 29.2274 41.3946 28.0419 41.3946 26.817C41.3946 21.9509 37.4543 17.9922 32.6109 17.9922ZM25.3222 39.5383L25.3218 39.5382H25.3222V39.5383ZM25.3222 39.5383V61.9009L38.6782 64.772V42.4089L37.0578 42.0607L33.4982 49.224C33.3301 49.5618 32.9866 49.7753 32.6109 49.7753C32.2352 49.7753 31.8918 49.5618 31.724 49.224L27.1002 39.9203L25.3222 39.5383ZM32.6109 20.4116C36.1264 20.4116 38.986 23.2851 38.986 26.817C38.986 30.3488 36.1264 33.222 32.6109 33.222C29.0955 33.222 26.2354 30.3488 26.2354 26.817C26.2354 23.2851 29.0955 20.4116 32.6109 20.4116ZM32.6109 22.4038C30.1889 22.4038 28.2183 24.3835 28.2183 26.817C28.2183 29.25 30.1889 31.2298 32.6109 31.2298C35.033 31.2298 37.0035 29.25 37.0035 26.817C37.0035 24.3835 35.033 22.4038 32.6109 22.4038Z" fill="#939185"/>
</g>
</svg>
