<svg width="21" height="21" viewBox="0 0 21 21" fill="none" xmlns="http://www.w3.org/2000/svg">
<path d="M10.5001 20.5C4.9733 20.5 0.5 16.0213 0.5 10.5001C0.5 4.97294 4.97232 0.5 10.5001 0.5C16.0272 0.5 20.5 4.97231 20.5 10.5001C20.5 16.0266 16.0208 20.5 10.5001 20.5Z" stroke="black"/>
<mask id="mask0" mask-type="alpha" maskUnits="userSpaceOnUse" x="0" y="0" width="21" height="21">
<path d="M10.5001 20.5C4.9733 20.5 0.5 16.0213 0.5 10.5001C0.5 4.97294 4.97232 0.5 10.5001 0.5C16.0272 0.5 20.5 4.97231 20.5 10.5001C20.5 16.0266 16.0208 20.5 10.5001 20.5Z" fill="white" stroke="white"/>
</mask>
<g mask="url(#mask0)">
<path fill-rule="evenodd" clip-rule="evenodd" d="M10.4629 13.6499C7.4294 13.6499 4.53694 14.9917 2.42307 17.8931C6.63253 23.0418 14.4243 22.9979 18.5769 17.8012C17.5515 16.769 15.2418 13.6499 10.4629 13.6499Z" stroke="black"/>
<path d="M10.5 11.1307C8.77188 11.1307 7.36536 9.72401 7.36536 7.99606V6.78452C7.36536 5.05656 8.77188 3.6499 10.5 3.6499C12.2279 3.6499 13.6346 5.05657 13.6346 6.78452V7.99606C13.6346 9.724 12.2279 11.1307 10.5 11.1307Z" stroke="black"/>
</g>
</svg>
