<svg width="64" height="64" viewBox="0 0 64 64" fill="none" xmlns="http://www.w3.org/2000/svg">
<circle cx="32" cy="32" r="31" fill="#F8F4EC" stroke="white" stroke-width="2"/>
<mask id="mask0" mask-type="alpha" maskUnits="userSpaceOnUse" x="0" y="0" width="64" height="64">
<circle cx="32" cy="32" r="31" fill="white" stroke="white" stroke-width="2"/>
</mask>
<g mask="url(#mask0)">
<path fill-rule="evenodd" clip-rule="evenodd" d="M53.671 22.053C54.3857 23.2895 54.8141 24.7352 54.9509 26.386C55.2641 30.1739 54.0111 34.5507 53.0956 37.7486L53.094 37.7539C52.5591 39.6224 50.8302 40.8524 48.9268 40.8524C48.6 40.8524 48.2686 40.8159 47.9371 40.7408C45.9602 40.2918 43.6456 39.7203 41.467 38.8898C41.0234 38.7211 40.8011 38.2243 40.9701 37.7808C41.1392 37.3372 41.636 37.1148 42.0792 37.2839C44.1584 38.0766 46.3995 38.6287 48.3177 39.0648C49.7162 39.3824 51.0594 38.6153 51.4417 37.2806C52.3211 34.2098 53.5255 30.0047 53.2376 26.5278C53.1495 25.4645 52.9313 24.5178 52.5776 23.6789C50.6158 24.8048 47.8858 24.3768 45.7395 23.7172C46.2036 25.4842 46.6349 28.1915 45.5536 29.8625C45.4039 30.095 45.1508 30.2406 44.8751 30.2541C42.8727 30.3526 40.8619 28.6469 39.6488 27.3737C39.0378 29.3073 37.8058 32.0583 35.9994 33.2249C36.4278 33.7998 36.9511 34.3361 37.5717 34.8354C37.9418 35.1326 38.0002 35.6739 37.7026 36.0435C37.5327 36.2546 37.2839 36.3645 37.0325 36.3645C36.8432 36.3645 36.6532 36.3024 36.4941 36.1745C35.4338 35.3209 34.6037 34.3663 34.0041 33.3143C33.9895 33.2908 33.976 33.2664 33.9638 33.2413C32.7218 31.0144 32.5052 28.3548 33.326 25.2924C34.0155 22.7184 35.5714 20.5418 37.6674 19.0686C34.8903 16.01 30.6988 14.8242 26.4788 15.9495C26.2316 16.1405 25.9778 16.3239 25.7192 16.4996C27.6675 18.6095 28.85 21.069 29.1551 23.6698C29.4085 25.8274 29.0543 28.0728 28.1581 30.0749C30.2993 31.528 31.9496 33.7276 32.6714 36.4195C33.501 39.5167 33.3005 42.2023 32.0755 44.4053C32.0697 44.4162 32.0638 44.4271 32.0571 44.4376C32.029 44.4879 32.0009 44.5383 31.9716 44.5878C29.3306 49.0735 22.8477 50.692 18.1145 51.8736L18.1142 51.8737C17.7726 51.9593 17.4294 52 17.0915 52C15.2407 52 13.5295 50.7768 12.9487 48.9011C12.3494 46.9641 11.687 44.6747 11.3168 42.3722C11.2413 41.9035 11.5602 41.4625 12.0289 41.3874C12.498 41.3118 12.9382 41.6308 13.0137 42.0995C13.367 44.2962 14.0091 46.5135 14.5907 48.3925C15.0149 49.763 16.3509 50.5427 17.6979 50.2061C21.8701 49.1647 27.4909 47.761 30.0404 44.3864C28.0875 43.2492 27.0943 40.6732 26.5929 38.4861C25.3311 39.7353 23.2846 41.4021 21.3452 41.4025C21.2894 41.4025 21.2336 41.4012 21.1777 41.3983C20.9021 41.384 20.649 41.2381 20.4993 41.0055C19.4132 39.3228 19.8849 36.7266 20.3809 35.0397C18.4011 35.4771 15.4021 35.7855 13.4887 34.8044C13.205 35.4628 13.0029 36.1846 12.8807 36.9713C12.8077 37.4404 12.3688 37.7614 11.8997 37.6888C11.4305 37.6163 11.1091 37.1769 11.1821 36.7078C11.3907 35.3629 11.8023 34.1678 12.4128 33.123C12.4284 33.094 12.4447 33.0654 12.464 33.0378C13.772 30.8557 15.9645 29.3417 19.0218 28.5226C21.6695 27.8131 24.3546 28.1265 26.6588 29.2184C28.0716 25.931 28.0666 21.3618 24.2086 17.4039C22.0468 18.5307 19.639 19.1248 17.2044 19.1248C15.9011 19.1248 14.8412 18.0645 14.8412 16.7615C14.8412 15.4582 15.9011 14.3982 17.2044 14.3982C19.039 14.3982 20.8433 13.9161 22.4228 13.0034C22.4429 12.9921 22.463 12.9815 22.4831 12.9715C24.0433 12.0567 25.3416 10.7479 26.2475 9.17897C26.2479 9.17854 26.2479 9.17811 26.2479 9.17811C26.564 8.63262 27.0734 8.24278 27.6827 8.08036C28.2915 7.91847 28.9272 8.0028 29.4727 8.31873C30.5985 8.97089 30.9841 10.4172 30.3321 11.5431C29.86 12.3605 29.3116 13.1292 28.6985 13.8413C30.2498 13.7339 31.7878 13.893 33.2459 14.3185C35.5449 14.989 37.5793 16.3184 39.1726 18.1778C39.9748 17.7849 40.833 17.4845 41.7335 17.289C42.1971 17.1883 42.6549 17.4829 42.7556 17.9465C42.8564 18.4103 42.5617 18.868 42.0976 18.9687C41.1485 19.1752 40.2551 19.5197 39.439 19.9809C39.4013 20.0064 39.3617 20.0291 39.3211 20.048C37.2133 21.2788 35.6394 23.2976 34.986 25.7372C34.3679 28.0434 34.415 30.0295 35.1371 31.7307C35.7615 31.2925 36.4236 30.4357 37.0253 29.2679C37.7479 27.8664 38.2485 26.2785 38.3694 25.4342C38.4185 25.0901 38.6698 24.8099 39.0059 24.7234C39.3421 24.6369 39.6974 24.7612 39.9065 25.0386C40.5514 25.8925 42.62 28.1769 44.3165 28.5008C44.9066 26.8278 44.0028 23.6954 43.5999 22.6383C43.4786 22.3198 43.5571 21.959 43.8005 21.7197C44.0438 21.4802 44.4056 21.4076 44.7228 21.5348C46.2426 22.1436 49.7527 23.3253 51.722 22.1897C50.7426 20.8973 49.2882 19.9532 47.3177 19.3095C46.8666 19.1618 46.6203 18.6767 46.768 18.2256C46.9153 17.7745 47.4003 17.5282 47.8515 17.6759C50.4556 18.5265 52.3555 19.9188 53.5397 21.8339C53.5951 21.9011 53.6392 21.9753 53.671 22.053ZM30.9002 42.8997C31.6093 41.2154 31.6451 39.2305 31.011 36.8643C29.6636 31.8355 24.4847 28.8382 19.4665 30.1826C17.1604 30.8007 15.4639 31.8342 14.3514 33.3106C15.043 33.632 16.1164 33.7771 17.429 33.7146C19.0038 33.6399 20.6294 33.2791 21.4207 32.9614C21.743 32.8322 22.1115 32.9098 22.3543 33.1578C22.5973 33.4053 22.6678 33.7755 22.5319 34.0952C22.1148 35.0805 21.1711 38.0145 21.7384 39.6459C23.4823 39.3203 25.7427 36.9713 26.4574 36.0943C26.6726 35.8291 27.0247 35.7171 27.3532 35.8081C27.6822 35.8996 27.926 36.1765 27.9747 36.5143C28.2068 38.1336 28.9369 41.7579 30.9002 42.8997ZM17.2044 16.117C16.8486 16.117 16.5599 16.4056 16.5599 16.7615C16.5599 17.1166 16.849 17.4061 17.2044 17.4061C19.5337 17.4061 21.8357 16.7939 23.867 15.6353C23.886 15.6219 23.9053 15.6096 23.9249 15.5984C23.9275 15.5966 23.9296 15.5953 23.9317 15.5942L23.9342 15.5929C25.9736 14.4125 27.6713 12.7147 28.8445 10.6833C28.9306 10.5343 28.9537 10.3615 28.9096 10.1957C28.8655 10.0304 28.7593 9.89194 28.6112 9.80589C28.4635 9.72028 28.2907 9.69761 28.1249 9.74165C27.9596 9.7857 27.8211 9.89151 27.7355 10.0392C26.6672 11.8897 25.1292 13.4293 23.2885 14.4922C23.267 14.5044 23.2452 14.5157 23.2234 14.5262C21.3968 15.5669 19.3172 16.117 17.2044 16.117ZM45.1567 18.816L45.1222 18.8122C44.6506 18.7601 44.3099 18.3359 44.3619 17.8639C44.414 17.3922 44.8377 17.0519 45.3099 17.1039L45.3505 17.1082C45.8222 17.1619 46.1612 17.5873 46.1075 18.059C46.0575 18.4979 45.6858 18.8215 45.2549 18.8215C45.2225 18.8215 45.1893 18.8197 45.1567 18.816ZM50.526 28.1013C50.6007 28.1215 50.6759 28.1316 50.7497 28.1316C51.1286 28.1316 51.4756 27.8781 51.5789 27.4946L51.5848 27.4723C51.7081 27.0141 51.4366 26.5425 50.9784 26.4195C50.5198 26.2962 50.0485 26.5676 49.9251 27.0263L49.9193 27.0486C49.7959 27.5071 50.0674 27.9784 50.526 28.1013ZM48.0314 30.1927C47.5728 30.0703 47.1015 30.3421 46.9787 30.8003L46.9727 30.8225C46.8497 31.2812 47.1217 31.7525 47.5799 31.8754C47.6547 31.8956 47.7293 31.9048 47.8031 31.9048C48.1825 31.9048 48.5295 31.6517 48.6327 31.2682L48.6386 31.2456C48.7615 30.7873 48.4896 30.3161 48.0314 30.1927ZM41.8916 32.1037L41.8858 32.1259C41.7829 32.5099 41.4355 32.7629 41.0566 32.7625C40.9827 32.7625 40.9076 32.7533 40.8334 32.7332C40.3747 32.6102 40.1028 32.1389 40.2257 31.6803L40.2316 31.6581C40.355 31.1998 40.8262 30.9279 41.2845 31.0508C41.743 31.1738 42.015 31.6451 41.8916 32.1037ZM12.7187 39.1513V39.1517C12.7187 39.6263 12.334 40.0111 11.8594 40.0111C11.3856 40.0111 11.0013 39.6275 11 39.1542C11 39.1416 11.0004 39.1282 11.0009 39.116C11.018 38.6419 11.4171 38.2725 11.8913 38.2893C12.3562 38.3065 12.7209 38.6897 12.7187 39.1513ZM44.2108 36.0994C44.5901 36.0994 44.9372 35.8458 45.04 35.4624L45.0459 35.4401C45.1692 34.9814 44.8974 34.5103 44.4387 34.3873C43.9805 34.2644 43.5093 34.5363 43.3858 34.9948L43.38 35.0171C43.257 35.4753 43.5289 35.9466 43.9876 36.0699C44.0618 36.0897 44.137 36.0994 44.2108 36.0994ZM16.9388 37.6927L16.961 37.6872C17.4193 37.5638 17.8909 37.8353 18.0139 38.2935C18.1372 38.7522 17.8653 39.2234 17.4072 39.3468L17.3849 39.3527C17.3101 39.3728 17.2346 39.3824 17.1612 39.3824C16.7819 39.3824 16.4349 39.1294 16.3316 38.7458C16.2086 38.2877 16.4802 37.8164 16.9388 37.6927ZM49.3398 35.1892C48.8812 35.0657 48.4099 35.3377 48.2869 35.7963L48.2811 35.819C48.1577 36.2773 48.4297 36.7485 48.8883 36.8714C48.9625 36.8916 49.0377 36.9009 49.1115 36.9009C49.4908 36.9009 49.8379 36.6478 49.9411 36.2638L49.9469 36.242C50.0704 35.7833 49.798 35.3121 49.3398 35.1892ZM15.6266 42.0928L15.6489 42.0865C16.1076 41.9635 16.5788 42.2359 16.7017 42.6941C16.8251 43.1523 16.5531 43.6239 16.0946 43.7465L16.0723 43.7528C15.9976 43.7729 15.9225 43.7821 15.8491 43.7821C15.4697 43.7821 15.1223 43.5292 15.0195 43.1456C14.8965 42.687 15.1685 42.2157 15.6266 42.0928ZM17.3832 46.738L17.4054 46.7321C17.864 46.6088 18.3353 46.8807 18.4583 47.3392C18.5807 47.7979 18.3088 48.2692 17.8506 48.3921L17.8283 48.398C17.7537 48.4181 17.679 48.4278 17.6051 48.4278C17.2258 48.4278 16.8789 48.1743 16.7756 47.7908C16.6526 47.3322 16.9245 46.8609 17.3832 46.738ZM21.5013 44.767C21.4265 44.7872 21.3514 44.7968 21.2777 44.7968C20.8983 44.7968 20.5513 44.5438 20.448 44.1598C20.3247 43.7016 20.5966 43.2303 21.0549 43.107L21.0774 43.1011C21.5357 42.9782 22.0069 43.2497 22.1303 43.7079C22.2533 44.1661 21.9817 44.6378 21.5235 44.7607L21.5013 44.767ZM26.0188 45.4615C26.0923 45.4615 26.1674 45.4518 26.2421 45.4317L26.2644 45.4258C26.7229 45.3024 26.9948 44.8317 26.8719 44.373C26.7485 43.9144 26.2778 43.6424 25.8187 43.7658L25.7964 43.7716C25.3383 43.8946 25.0663 44.3659 25.1893 44.8245C25.2925 45.2084 25.6395 45.4615 26.0188 45.4615ZM39.3912 36.0725L39.3846 36.0687C39.3775 36.0646 39.37 36.0603 39.363 36.0565C38.9505 35.8274 38.4303 35.9735 38.1978 36.3851C37.9641 36.7979 38.1096 37.3225 38.523 37.5562C38.5236 37.5562 38.524 37.5564 38.5245 37.5567C38.5249 37.557 38.5253 37.5574 38.5257 37.5578L38.5259 37.558C38.6593 37.633 38.8045 37.6691 38.9485 37.6691C39.2406 37.6691 39.525 37.5201 39.6861 37.2516C39.9303 36.8446 39.7982 36.3171 39.3912 36.0725Z" fill="#939185"/>
<path fill-rule="evenodd" clip-rule="evenodd" d="M12.5 13L11 19L17 22L24 17.5L28.5 14L35 8.5L28 4L12.5 13Z" fill="#E9E6E0"/>
<path d="M25.5 17.5C25.5 17.5 18.5 9 8 6" stroke="#939185" stroke-width="1.8"/>
<path d="M24.5 16.5C24.5 16.5 28 14.5 30 14.5" stroke="#939185" stroke-width="1.7"/>
</g>
</svg>
