<svg width="64" height="64" viewBox="0 0 64 64" fill="none" xmlns="http://www.w3.org/2000/svg">
<circle cx="32" cy="32" r="31" fill="white" stroke="white" stroke-width="2"/>
<mask id="mask0" mask-type="alpha" maskUnits="userSpaceOnUse" x="0" y="0" width="64" height="64">
<circle cx="32" cy="32" r="31" fill="white" stroke="white" stroke-width="2"/>
</mask>
<g mask="url(#mask0)">
<path fill-rule="evenodd" clip-rule="evenodd" d="M67.9735 27.796C69.0911 27.796 70 28.7077 70 29.8281C70 30.8022 69.3136 31.6183 68.4012 31.8154V34.6289C68.4012 36.4648 66.9121 37.9584 65.0814 37.9584C64.0453 37.9584 63.1184 37.4795 62.5091 36.7309C61.8998 37.4795 60.9729 37.9584 59.9368 37.9584C58.9001 37.9584 57.9734 37.4795 57.3641 36.7309C56.7546 37.4795 55.8279 37.9584 54.7916 37.9584C53.7551 37.9584 52.8282 37.4795 52.2189 36.7309C51.61 37.4795 50.6828 37.9584 49.6466 37.9584C48.6101 37.9584 47.6832 37.4795 47.0743 36.7309C46.465 37.4795 45.5381 37.9584 44.5016 37.9584C43.465 37.9584 42.5382 37.4795 41.9292 36.7309C41.3199 37.4795 40.3931 37.9584 39.3565 37.9584C38.3203 37.9584 37.3931 37.4795 36.7842 36.7309C36.1748 37.4795 35.248 37.9584 34.2114 37.9584C33.1753 37.9584 32.2484 37.4795 31.6391 36.7309C31.0298 37.4795 30.103 37.9584 29.0664 37.9584C28.0302 37.9584 27.1034 37.4795 26.494 36.7309C25.8847 37.4795 24.9578 37.9584 23.9213 37.9584C22.091 37.9584 20.6019 36.4648 20.6019 34.6289V31.8158C19.6875 31.6199 19 30.803 19 29.8281C19 28.7077 19.9089 27.796 21.0265 27.796H23.7906C24.1848 27.3405 24.4681 26.7457 24.5969 26.1197H24.1089C23.233 26.1197 22.468 25.5257 22.2486 24.6753L21.9283 23.4354H21.9007C20.8657 23.4354 20.0233 22.5904 20.0233 21.5522C20.0233 20.7069 20.5817 19.99 21.3474 19.7523C22.1326 14.9363 25.9781 11.3078 30.6396 10.9551V10.4551C30.6396 10.0414 30.9737 9.70577 31.3866 9.70577C31.799 9.70577 32.1337 10.0414 32.1337 10.4551V10.9551C36.7947 11.3078 40.6401 14.9363 41.4254 19.7523C42.1911 19.99 42.7495 20.7069 42.7495 21.5522C42.7495 22.5904 41.9071 23.4354 40.872 23.4354H40.8444L40.5242 24.6753C40.3048 25.5257 39.5398 26.1197 38.6639 26.1197H37.8733C38.0025 26.7457 38.2857 27.3405 38.6798 27.796H49.0544C49.4486 27.3405 49.7318 26.7457 49.861 26.1197H48.9524C48.0766 26.1197 47.3117 25.5257 47.0921 24.6753L46.772 23.4354H46.7443C45.709 23.4354 44.867 22.5904 44.867 21.5522C44.867 20.7947 45.3152 20.1403 45.9595 19.8417C45.0739 15.128 47.365 10.4602 51.5345 8.48456L51.3563 8.01787C51.2085 7.63101 51.401 7.1978 51.7866 7.04993C52.1719 6.90166 52.6037 7.09479 52.7516 7.48115L52.9302 7.94833C55.0278 7.32079 57.2904 7.41171 59.378 8.21959C61.6694 9.1059 63.606 10.7958 64.8308 12.9771C64.9849 13.2518 65.0126 13.58 64.9059 13.8775C64.7989 14.1748 64.5693 14.4102 64.2752 14.5234L64.2748 14.5238L59.2963 16.4377C59.9745 16.5095 60.6087 16.7964 61.1188 17.2674C61.3246 17.4575 61.6138 17.5129 61.8379 17.4052C62.2978 17.1839 62.8114 17.0914 63.325 17.1379C64.6662 17.2581 65.7476 18.3184 65.8958 19.6594C65.8961 19.6641 65.8966 19.6685 65.8971 19.6731C65.8973 19.6746 65.8975 19.6762 65.8977 19.6778C66.8476 19.7698 67.593 20.5754 67.593 21.5518C67.593 22.5904 66.7506 23.435 65.7152 23.435H65.6876L65.3674 24.6749C65.1479 25.5257 64.3829 26.1193 63.5075 26.1193H63.1371C63.2659 26.7453 63.5495 27.3405 63.9436 27.796H67.9735ZM63.1915 18.6302C62.9425 18.6085 62.7044 18.6501 62.4838 18.7563C61.7016 19.1326 60.7686 18.9811 60.1068 18.37C59.7717 18.0604 59.3356 17.902 58.8784 17.92C58.0185 17.9558 57.3029 18.6584 57.2492 19.5189C57.2465 19.5693 57.2453 19.6193 57.2465 19.6688H64.3833C64.2522 19.1165 63.7647 18.6818 63.1915 18.6302ZM55.752 19.6688C55.7512 19.588 55.7532 19.5073 55.7582 19.426C55.8041 18.683 56.1131 18.0027 56.5897 17.4782L50.8905 19.6688H55.752ZM55.7457 9.03607C54.7287 9.03607 53.7166 9.2203 52.7571 9.58907C48.8832 11.0784 46.6836 15.2013 47.3995 19.4061L63.2829 13.2999C62.2239 11.6209 60.662 10.3228 58.8403 9.61755C57.8383 9.22999 56.7893 9.03607 55.7457 9.03607ZM46.7443 21.1675C46.533 21.1675 46.3611 21.3399 46.3611 21.5518C46.3611 21.7639 46.533 21.9363 46.7443 21.9363H47.3454H47.3544H65.0908C65.1024 21.9359 65.1141 21.9359 65.1257 21.9363H65.7156C65.9269 21.9363 66.0989 21.7639 66.0989 21.5518C66.0989 21.3399 65.9269 21.1675 65.7156 21.1675H65.1406C65.133 21.1677 65.1253 21.1678 65.1175 21.1678C65.1134 21.1677 65.1092 21.1676 65.1051 21.1675H56.6446C56.6391 21.1675 56.6336 21.1679 56.6282 21.1679C56.6254 21.1679 56.6226 21.1678 56.6199 21.1677C56.6173 21.1676 56.6147 21.1675 56.6123 21.1675H46.7443ZM48.3155 23.435L48.5385 24.2994C48.5871 24.4887 48.7575 24.6206 48.952 24.6206H63.5075C63.702 24.6206 63.8724 24.4887 63.9211 24.2994L64.1445 23.435H48.3155ZM61.62 26.1193H51.3781C51.2925 26.7063 51.1096 27.2769 50.8431 27.796H62.1546C61.888 27.2769 61.7052 26.7063 61.62 26.1193ZM39.8915 19.6688C39.06 15.4854 35.5348 12.4257 31.3862 12.4257C27.2376 12.4257 23.7127 15.4854 22.8809 19.6688H39.8915ZM21.9007 21.1675C21.6895 21.1675 21.5174 21.3399 21.5174 21.5518C21.5174 21.7639 21.6895 21.9363 21.9007 21.9363H22.5019H22.5116H40.2472C40.2588 21.9359 40.2705 21.9359 40.2821 21.9363H40.8716C41.0833 21.9363 41.2553 21.7639 41.2553 21.5518C41.2553 21.3399 41.0833 21.1675 40.8716 21.1675H21.9007ZM23.472 23.435L23.6949 24.2994C23.7439 24.4887 23.9139 24.6206 24.1089 24.6206H38.6639C38.8584 24.6206 39.0289 24.4887 39.0775 24.2994L39.3009 23.435H23.472ZM36.3561 26.1193H26.1143C26.029 26.7063 25.8459 27.2769 25.5793 27.796H36.8907C36.6247 27.2769 36.4414 26.7063 36.3561 26.1193ZM22.0961 34.6289C22.0961 35.6386 22.9147 36.4597 23.9213 36.4597C24.928 36.4597 25.7469 35.6386 25.7465 34.6289V31.8607H22.0961V34.6289ZM27.2411 34.6289C27.2411 35.6386 28.0598 36.4597 29.0664 36.4597C30.073 36.4597 30.8917 35.6386 30.8917 34.6289V31.8607H27.2411V34.6289ZM32.3858 34.6289C32.3858 35.6386 33.2048 36.4597 34.2114 36.4597C35.218 36.4597 36.0367 35.6386 36.0367 34.6289V31.8607H32.3858V34.6289ZM37.5308 34.6289C37.5308 35.6386 38.3499 36.4597 39.3561 36.4597C40.3627 36.4597 41.1818 35.6386 41.1818 34.6289V31.8607H37.5308V34.6289ZM42.676 34.6289C42.676 35.6386 43.4945 36.4597 44.5012 36.4597C45.5077 36.4597 46.3268 35.6386 46.3268 34.6289V31.8607H42.676V34.6289ZM47.821 34.6289C47.821 35.6386 48.6397 36.4597 49.6462 36.4597C50.6529 36.4597 51.4715 35.6386 51.4715 34.6289V31.8607H47.821V34.6289ZM52.9656 34.6289C52.9656 35.6386 53.7847 36.4597 54.7912 36.4597C55.7979 36.4597 56.6166 35.6386 56.6166 34.6289V31.8607H52.9656V34.6289ZM58.1107 34.6289C58.1107 35.6386 58.9293 36.4597 59.936 36.4597C60.9425 36.4597 61.7616 35.6386 61.7612 34.6289V31.8607H58.1107V34.6289ZM63.2557 34.6289C63.2557 35.6386 64.0744 36.4597 65.081 36.4597C66.0876 36.4597 66.9062 35.6386 66.9062 34.6289V31.8607H63.2557V34.6289ZM21.0265 30.362H67.9735C68.267 30.362 68.5059 30.1228 68.5059 29.8281C68.5059 29.5338 68.267 29.2947 67.9735 29.2947H21.0265C20.733 29.2947 20.4941 29.5338 20.4941 29.8281C20.4941 30.1228 20.733 30.362 21.0265 30.362ZM66.9062 38.9677C66.9062 38.5535 67.2409 38.2183 67.6533 38.2183C68.0662 38.2183 68.4004 38.5535 68.4008 38.9677V45.1356C68.4008 46.6557 67.1677 47.8925 65.6522 47.8925H64.586V51.9998C64.586 53.1028 63.6919 54 62.5924 54H61.9753C60.876 54 59.9815 53.1028 59.9815 51.9998V47.8925H29.0695V51.9862C29.0695 53.0891 28.1749 53.9859 27.0757 53.9859H26.4587C25.3595 53.9859 24.4649 53.0891 24.4649 51.9862V47.8925H23.3505C21.835 47.8925 20.6019 46.6557 20.6019 45.1356V38.9259C20.6019 38.5118 20.9365 38.1766 21.349 38.1766C21.7615 38.1766 22.0961 38.5118 22.0961 38.9259V45.1356C22.0961 45.8296 22.6587 46.3939 23.3505 46.3939H65.6522C66.344 46.3939 66.9062 45.8292 66.9062 45.1356V38.9677ZM27.0757 52.4872C27.3512 52.4872 27.5754 52.2624 27.5754 51.9862V47.8925H25.959V51.9862C25.959 52.2624 26.1831 52.4872 26.4587 52.4872H27.0757ZM62.5924 52.5013C62.8678 52.5013 63.0919 52.2765 63.0919 51.9998V47.8925H61.4756V51.9998C61.4756 52.2765 61.6997 52.5013 61.9753 52.5013H62.5924Z" fill="#979590"/>
<path fill-rule="evenodd" clip-rule="evenodd" d="M49.5 3.7998L43.5 10.6569L44 18.9835L44.5 24.861V27.7998H62L65 17.5141L49.5 3.7998Z" fill="white"/>
</g>
</svg>
