<?xml version="1.0" encoding="UTF-8"?>
<svg width="63px" height="71px" viewBox="0 0 63 71" version="1.1" xmlns="http://www.w3.org/2000/svg" xmlns:xlink="http://www.w3.org/1999/xlink">
    <!-- Generator: Sketch 57.1 (83088) - https://sketch.com -->
    <title>Group 3</title>
    <desc>Created with Sketch.</desc>
    <defs>
        <path d="M10.5001,20.5 C4.9733,20.5 0.5,16.0213 0.5,10.5001 C0.5,4.97294 4.97232,0.5 10.5001,0.5 C16.0272,0.5 20.5,4.97231 20.5,10.5001 C20.5,16.0266 16.0208,20.5 10.5001,20.5 Z" id="path-1"></path>
        <path d="M10.5001,20.5 C4.9733,20.5 0.5,16.0213 0.5,10.5001 C0.5,4.97294 4.97232,0.5 10.5001,0.5 C16.0272,0.5 20.5,4.97231 20.5,10.5001 C20.5,16.0266 16.0208,20.5 10.5001,20.5 Z" id="path-3"></path>
    </defs>
    <g id="Page-1" stroke="none" stroke-width="1" fill="none" fill-rule="evenodd">
        <g id="Artboard">
            <g id="Group-3">
                <g id="Profile">
                    <path d="M10.5001,20.5 C4.9733,20.5 0.5,16.0213 0.5,10.5001 C0.5,4.97294 4.97232,0.5 10.5001,0.5 C16.0272,0.5 20.5,4.97231 20.5,10.5001 C20.5,16.0266 16.0208,20.5 10.5001,20.5 Z" id="Path" stroke="#000000"></path>
                    <g id="Clipped">
                        <mask id="mask-2" fill="white">
                            <use xlink:href="#path-1"></use>
                        </mask>
                        <g id="Path"></g>
                        <g id="Group" mask="url(#mask-2)" stroke="#000000">
                            <g transform="translate(2.000000, 3.000000)" id="Path">
                                <path d="M8.4629,10.6499 C5.4294,10.6499 2.53694,11.9917 0.42307,14.8931 C4.63253,20.0418 12.4243,19.9979 16.5769,14.8012 C15.5515,13.769 13.2418,10.6499 8.4629,10.6499 Z"></path>
                                <path d="M8.5,8.1307 C6.77188,8.1307 5.36536,6.72401 5.36536,4.99606 L5.36536,3.78452 C5.36536,2.05656 6.77188,0.6499 8.5,0.6499 C10.2279,0.6499 11.6346,2.05657 11.6346,3.78452 L11.6346,4.99606 C11.6346,6.724 10.2279,8.1307 8.5,8.1307 Z"></path>
                            </g>
                        </g>
                    </g>
                </g>
                <g id="cart" transform="translate(27.000000, 27.000000)" fill="#FFFFFF" fill-rule="nonzero">
                    <path d="M5.28687179,13.181641 L16.2858462,13.181641 C17.5330769,13.181641 18.5504615,12.164 18.5504615,10.9170256 L18.5504615,6.23994872 C18.5504615,6.23169231 18.5504615,6.22348718 18.5464615,6.21528205 C18.5464615,6.20728205 18.5422564,6.19487179 18.5422564,6.18666667 C18.5422564,6.17841026 18.5382564,6.17020513 18.5382564,6.162 C18.5340513,6.15379487 18.5340513,6.14558974 18.5300513,6.13333333 C18.5258462,6.12512821 18.5258462,6.11692308 18.5218462,6.10871795 C18.517641,6.10051282 18.517641,6.09230769 18.513641,6.08410256 C18.5094359,6.07584615 18.5053846,6.06764103 18.5011795,6.0554359 C18.4971795,6.04723077 18.4929744,6.03902564 18.4889744,6.03482051 L18.4767692,6.01015385 C18.4725641,6.00215385 18.4685641,5.99794872 18.464359,5.98974359 C18.460359,5.98153846 18.4521026,5.97328205 18.4478974,5.96507692 C18.4438974,5.95687179 18.4396923,5.95287179 18.4314872,5.94466667 C18.4274872,5.93646154 18.4192821,5.93225641 18.4150769,5.924 C18.4110769,5.91579487 18.4028205,5.91179487 18.3986154,5.90358974 C18.3946154,5.89538462 18.3864103,5.89138462 18.3822051,5.88717949 L18.3617949,5.86671795 C18.3535897,5.86251282 18.3495385,5.85430769 18.3413333,5.85030769 C18.3331282,5.84610256 18.3249231,5.83789744 18.3167179,5.83389744 C18.3085128,5.82969231 18.3043077,5.82564103 18.2960513,5.8214359 C18.2878462,5.8174359 18.279641,5.81323077 18.271641,5.80502564 L18.222359,5.78061538 L18.1976923,5.76815385 C18.1894872,5.76415385 18.1812821,5.76415385 18.1730769,5.75994872 C18.1648718,5.75594872 18.1526667,5.75174359 18.1444103,5.75174359 C18.1362051,5.75174359 18.128,5.74774359 18.1237949,5.74774359 C18.1115897,5.74353846 18.1033846,5.74353846 18.0909231,5.74353846 C18.0869231,5.74353846 18.0827179,5.73953846 18.0745128,5.73953846 L4.134,3.8154359 L4.134,1.87071795 C4.134,1.85030769 4.134,1.82969231 4.13,1.81323077 C4.13,1.80923077 4.13,1.80502564 4.12579487,1.79702564 C4.12579487,1.78461538 4.12179487,1.77235897 4.12179487,1.75994872 C4.11779487,1.74774359 4.11779487,1.73953846 4.11358974,1.72712821 C4.11358974,1.71887179 4.10958974,1.71487179 4.10958974,1.70666667 L4.09717949,1.66979487 C4.09717949,1.66558974 4.09312821,1.65738462 4.09312821,1.65338462 C4.08892308,1.64097436 4.08492308,1.63276923 4.07671795,1.62051282 C4.07251282,1.61630769 4.07251282,1.60810256 4.06851282,1.60410256 C4.06430769,1.59589744 4.06030769,1.58769231 4.05210256,1.57948718 C4.04789744,1.57128205 4.04384615,1.56723077 4.03964103,1.55902564 C4.03564103,1.55082051 4.0314359,1.54661538 4.0274359,1.53841026 C4.02323077,1.53020513 4.01523077,1.522 4.01102564,1.51374359 L3.97415385,1.47692308 L3.96174359,1.46466667 C3.95353846,1.45646154 3.94533333,1.44825641 3.93307692,1.44005128 C3.92887179,1.43584615 3.92066667,1.43184615 3.91666667,1.42764103 C3.90846154,1.4194359 3.90025641,1.41538462 3.89205128,1.40717949 C3.87979487,1.39897436 3.86738462,1.39076923 3.85917949,1.38676923 C3.85517949,1.3825641 3.85097436,1.3825641 3.84697436,1.3785641 C3.83051282,1.37035897 3.81010256,1.36210256 3.79369231,1.35389744 L0.770051282,0.0820512821 C0.486974359,-0.0369230769 0.162871795,0.0943076923 0.0438461538,0.377333333 C-0.0751282051,0.660615385 0.0561025641,0.984512821 0.339128205,1.10348718 L3.02225641,2.23589744 L3.02225641,14.3713333 C3.02225641,15.52 3.88379487,16.4716923 4.99558974,16.6153333 C4.79466667,16.9518462 4.67569231,17.3456923 4.67569231,17.7641538 C4.67569231,18.9989231 5.68066667,19.9999487 6.9114359,19.9999487 C8.14220513,19.9999487 9.1474359,18.9949231 9.1474359,17.7641538 C9.1474359,17.3538974 9.03666667,16.9641026 8.83974359,16.6359487 L13.8203077,16.6359487 C13.6233846,16.9683077 13.5126154,17.3538974 13.5126154,17.7641538 C13.5126154,18.9989231 14.517641,19.9999487 15.7484103,19.9999487 C16.9791795,19.9999487 17.984359,18.9949231 17.984359,17.7641538 C17.984359,16.5333846 16.9791795,15.5282051 15.7484103,15.5282051 L5.28687179,15.5282051 C4.64682051,15.5282051 4.13,15.0071795 4.13,14.3713333 L4.13,12.8697436 C4.46635897,13.0666667 4.86435897,13.181641 5.28687179,13.181641 Z M8.04384615,17.7599487 C8.04384615,18.3835385 7.53507692,18.8881538 6.91564103,18.8881538 C6.29605128,18.8881538 5.7874359,18.3795385 5.7874359,17.7599487 C5.7874359,17.1405641 6.29605128,16.6317436 6.91564103,16.6317436 C7.53507692,16.6317436 8.04384615,17.136359 8.04384615,17.7599487 Z M16.8808205,17.7599487 C16.8808205,18.3835385 16.372,18.8881538 15.7526154,18.8881538 C15.1330256,18.8881538 14.6244103,18.3795385 14.6244103,17.7599487 C14.6244103,17.1405641 15.1330256,16.6317436 15.7526154,16.6317436 C16.372,16.6317436 16.8808205,17.136359 16.8808205,17.7599487 Z M16.2858462,12.0738462 L5.28687179,12.0738462 C4.64682051,12.0738462 4.13,11.5528205 4.13,10.9170256 L4.13,4.93123077 L17.4429231,6.76517949 L17.4429231,10.9128205 C17.4429231,11.5568205 16.9218974,12.0738462 16.2858462,12.0738462 Z" id="Fill-1"></path>
                </g>
                <g id="cart" transform="translate(27.000000, 1.000000)" fill="#000000" fill-rule="nonzero">
                    <path d="M5.28687179,13.181641 L16.2858462,13.181641 C17.5330769,13.181641 18.5504615,12.164 18.5504615,10.9170256 L18.5504615,6.23994872 C18.5504615,6.23169231 18.5504615,6.22348718 18.5464615,6.21528205 C18.5464615,6.20728205 18.5422564,6.19487179 18.5422564,6.18666667 C18.5422564,6.17841026 18.5382564,6.17020513 18.5382564,6.162 C18.5340513,6.15379487 18.5340513,6.14558974 18.5300513,6.13333333 C18.5258462,6.12512821 18.5258462,6.11692308 18.5218462,6.10871795 C18.517641,6.10051282 18.517641,6.09230769 18.513641,6.08410256 C18.5094359,6.07584615 18.5053846,6.06764103 18.5011795,6.0554359 C18.4971795,6.04723077 18.4929744,6.03902564 18.4889744,6.03482051 L18.4767692,6.01015385 C18.4725641,6.00215385 18.4685641,5.99794872 18.464359,5.98974359 C18.460359,5.98153846 18.4521026,5.97328205 18.4478974,5.96507692 C18.4438974,5.95687179 18.4396923,5.95287179 18.4314872,5.94466667 C18.4274872,5.93646154 18.4192821,5.93225641 18.4150769,5.924 C18.4110769,5.91579487 18.4028205,5.91179487 18.3986154,5.90358974 C18.3946154,5.89538462 18.3864103,5.89138462 18.3822051,5.88717949 L18.3617949,5.86671795 C18.3535897,5.86251282 18.3495385,5.85430769 18.3413333,5.85030769 C18.3331282,5.84610256 18.3249231,5.83789744 18.3167179,5.83389744 C18.3085128,5.82969231 18.3043077,5.82564103 18.2960513,5.8214359 C18.2878462,5.8174359 18.279641,5.81323077 18.271641,5.80502564 L18.222359,5.78061538 L18.1976923,5.76815385 C18.1894872,5.76415385 18.1812821,5.76415385 18.1730769,5.75994872 C18.1648718,5.75594872 18.1526667,5.75174359 18.1444103,5.75174359 C18.1362051,5.75174359 18.128,5.74774359 18.1237949,5.74774359 C18.1115897,5.74353846 18.1033846,5.74353846 18.0909231,5.74353846 C18.0869231,5.74353846 18.0827179,5.73953846 18.0745128,5.73953846 L4.134,3.8154359 L4.134,1.87071795 C4.134,1.85030769 4.134,1.82969231 4.13,1.81323077 C4.13,1.80923077 4.13,1.80502564 4.12579487,1.79702564 C4.12579487,1.78461538 4.12179487,1.77235897 4.12179487,1.75994872 C4.11779487,1.74774359 4.11779487,1.73953846 4.11358974,1.72712821 C4.11358974,1.71887179 4.10958974,1.71487179 4.10958974,1.70666667 L4.09717949,1.66979487 C4.09717949,1.66558974 4.09312821,1.65738462 4.09312821,1.65338462 C4.08892308,1.64097436 4.08492308,1.63276923 4.07671795,1.62051282 C4.07251282,1.61630769 4.07251282,1.60810256 4.06851282,1.60410256 C4.06430769,1.59589744 4.06030769,1.58769231 4.05210256,1.57948718 C4.04789744,1.57128205 4.04384615,1.56723077 4.03964103,1.55902564 C4.03564103,1.55082051 4.0314359,1.54661538 4.0274359,1.53841026 C4.02323077,1.53020513 4.01523077,1.522 4.01102564,1.51374359 L3.97415385,1.47692308 L3.96174359,1.46466667 C3.95353846,1.45646154 3.94533333,1.44825641 3.93307692,1.44005128 C3.92887179,1.43584615 3.92066667,1.43184615 3.91666667,1.42764103 C3.90846154,1.4194359 3.90025641,1.41538462 3.89205128,1.40717949 C3.87979487,1.39897436 3.86738462,1.39076923 3.85917949,1.38676923 C3.85517949,1.3825641 3.85097436,1.3825641 3.84697436,1.3785641 C3.83051282,1.37035897 3.81010256,1.36210256 3.79369231,1.35389744 L0.770051282,0.0820512821 C0.486974359,-0.0369230769 0.162871795,0.0943076923 0.0438461538,0.377333333 C-0.0751282051,0.660615385 0.0561025641,0.984512821 0.339128205,1.10348718 L3.02225641,2.23589744 L3.02225641,14.3713333 C3.02225641,15.52 3.88379487,16.4716923 4.99558974,16.6153333 C4.79466667,16.9518462 4.67569231,17.3456923 4.67569231,17.7641538 C4.67569231,18.9989231 5.68066667,19.9999487 6.9114359,19.9999487 C8.14220513,19.9999487 9.1474359,18.9949231 9.1474359,17.7641538 C9.1474359,17.3538974 9.03666667,16.9641026 8.83974359,16.6359487 L13.8203077,16.6359487 C13.6233846,16.9683077 13.5126154,17.3538974 13.5126154,17.7641538 C13.5126154,18.9989231 14.517641,19.9999487 15.7484103,19.9999487 C16.9791795,19.9999487 17.984359,18.9949231 17.984359,17.7641538 C17.984359,16.5333846 16.9791795,15.5282051 15.7484103,15.5282051 L5.28687179,15.5282051 C4.64682051,15.5282051 4.13,15.0071795 4.13,14.3713333 L4.13,12.8697436 C4.46635897,13.0666667 4.86435897,13.181641 5.28687179,13.181641 Z M8.04384615,17.7599487 C8.04384615,18.3835385 7.53507692,18.8881538 6.91564103,18.8881538 C6.29605128,18.8881538 5.7874359,18.3795385 5.7874359,17.7599487 C5.7874359,17.1405641 6.29605128,16.6317436 6.91564103,16.6317436 C7.53507692,16.6317436 8.04384615,17.136359 8.04384615,17.7599487 Z M16.8808205,17.7599487 C16.8808205,18.3835385 16.372,18.8881538 15.7526154,18.8881538 C15.1330256,18.8881538 14.6244103,18.3795385 14.6244103,17.7599487 C14.6244103,17.1405641 15.1330256,16.6317436 15.7526154,16.6317436 C16.372,16.6317436 16.8808205,17.136359 16.8808205,17.7599487 Z M16.2858462,12.0738462 L5.28687179,12.0738462 C4.64682051,12.0738462 4.13,11.5528205 4.13,10.9170256 L4.13,4.93123077 L17.4429231,6.76517949 L17.4429231,10.9128205 C17.4429231,11.5568205 16.9218974,12.0738462 16.2858462,12.0738462 Z" id="Fill-1"></path>
                </g>
                <g id="Profile" transform="translate(0.000000, 26.000000)">
                    <path d="M10.5001,20.5 C4.9733,20.5 0.5,16.0213 0.5,10.5001 C0.5,4.97294 4.97232,0.5 10.5001,0.5 C16.0272,0.5 20.5,4.97231 20.5,10.5001 C20.5,16.0266 16.0208,20.5 10.5001,20.5 Z" id="Path" stroke="#000000"></path>
                    <g id="Clipped">
                        <mask id="mask-4" fill="white">
                            <use xlink:href="#path-3"></use>
                        </mask>
                        <use id="Path" stroke="#FFFFFF" xlink:href="#path-3"></use>
                        <g id="Group" mask="url(#mask-4)" stroke="#FFFFFF">
                            <g transform="translate(2.000000, 3.000000)" id="Path">
                                <path d="M8.4629,10.6499 C5.4294,10.6499 2.53694,11.9917 0.42307,14.8931 C4.63253,20.0418 12.4243,19.9979 16.5769,14.8012 C15.5515,13.769 13.2418,10.6499 8.4629,10.6499 Z"></path>
                                <path d="M8.5,8.1307 C6.77188,8.1307 5.36536,6.72401 5.36536,4.99606 L5.36536,3.78452 C5.36536,2.05656 6.77188,0.6499 8.5,0.6499 C10.2279,0.6499 11.6346,2.05657 11.6346,3.78452 L11.6346,4.99606 C11.6346,6.724 10.2279,8.1307 8.5,8.1307 Z"></path>
                            </g>
                        </g>
                    </g>
                </g>
                <g id="arrow" transform="translate(52.000000, 2.000000)" stroke="#000000" stroke-linecap="round" stroke-linejoin="round" stroke-width="1.5">
                    <polyline id="Path" points="0 0 5 5.5 10 0"></polyline>
                </g>
                <g id="arrow" transform="translate(52.000000, 13.000000)" stroke="#FFFFFF" stroke-linecap="round" stroke-linejoin="round" stroke-width="1.5">
                    <polyline id="Path" points="0 0 5 5.5 10 0"></polyline>
                </g>
                <g id="Arrow2" transform="translate(53.000000, 24.000000)" stroke="#FFFFFF" stroke-linecap="round" stroke-linejoin="round" stroke-width="1.5">
                    <polyline id="Path" points="0 0 3.63636 4 7.27273 0"></polyline>
                </g>
                <g id="Arrow2" transform="translate(53.000000, 34.000000)" stroke="#000000" stroke-linecap="round" stroke-linejoin="round" stroke-width="1.5">
                    <polyline id="Path" points="0 0 3.63636 4 7.27273 0"></polyline>
                </g>
                <g id="Path-5" transform="translate(55.000000, 43.000000)" stroke="#878787" stroke-linecap="round" stroke-linejoin="round" stroke-width="1.5">
                    <polyline id="Path" points="0 0 4 3.63636 0 7.27272"></polyline>
                </g>
                <g id="Combined-Shape" transform="translate(1.000000, 51.000000)" fill="#141414">
                    <path d="M18.9755,1.82937 L7.96994,1.82937 C7.61237,0.767287 6.60789,0 5.42695,0 C4.24607,0 3.24152,0.767287 2.88395,1.82937 L0.85389,1.82937 C0.382467,1.82937 0,2.21154 0,2.68326 C0,3.15461 0.382467,3.53715 0.85389,3.53715 L2.88395,3.53715 C3.24152,4.59886 4.24607,5.36615 5.42695,5.36615 C6.6082,5.36615 7.61237,4.59886 7.96994,3.53715 L18.9755,3.53715 C19.4469,3.53715 19.8294,3.15461 19.8294,2.68326 C19.8294,2.21154 19.4469,1.82937 18.9755,1.82937 Z M5.42694,3.65837 C4.88911,3.65837 4.45184,3.2208 4.45184,2.68326 C4.45184,2.14543 4.88911,1.70778 5.42694,1.70778 C5.96478,1.70778 6.40243,2.14543 6.40243,2.68326 C6.40243,3.2208 5.96478,3.65837 5.42694,3.65837 Z M18.9755,9.14611 L18.9454,9.14611 C18.5879,8.0841 17.5833,7.31674 16.4024,7.31674 C15.2215,7.31674 14.217,8.0841 13.8594,9.14611 L0.85389,9.14611 C0.382467,9.14611 0,9.52827 0,10 C0,10.4717 0.382467,10.8539 0.85389,10.8539 L13.8594,10.8539 C14.217,11.9159 15.2215,12.6833 16.4024,12.6833 C17.5833,12.6833 18.5879,11.9159 18.9454,10.8539 L18.9755,10.8539 C19.4469,10.8539 19.8294,10.4717 19.8294,10 C19.8294,9.52827 19.4469,9.14611 18.9755,9.14611 Z M16.4024,10.9755 C15.8646,10.9755 15.4269,10.5378 15.4269,10 C15.4269,9.46216 15.8646,9.02452 16.4024,9.02452 C16.9403,9.02452 17.3775,9.46216 17.3775,10 C17.3775,10.5378 16.9403,10.9755 16.4024,10.9755 Z M11.6283,16.4628 L18.9755,16.4628 C19.4469,16.4628 19.8294,16.8454 19.8294,17.3167 C19.8294,17.7885 19.4469,18.1706 18.9755,18.1706 L11.6283,18.1706 C11.271,19.2327 10.2666,20 9.08531,20 C7.90444,20 6.89989,19.2327 6.54239,18.1706 L0.85389,18.1706 C0.382467,18.1706 0,17.7885 0,17.3167 C0,16.8454 0.382467,16.4628 0.85389,16.4628 L6.54239,16.4628 C6.89989,15.4011 7.90444,14.6339 9.08531,14.6339 C10.2666,14.6339 11.271,15.4011 11.6283,16.4628 Z M8.11021,17.317 C8.11021,17.8546 8.54778,18.2922 9.08531,18.2922 C9.62315,18.2922 10.0608,17.8546 10.0608,17.3167 C10.0608,16.7792 9.62315,16.3416 9.08531,16.3416 C8.54778,16.3416 8.11021,16.7792 8.11021,17.317 Z" id="Shape"></path>
                </g>
            </g>
        </g>
    </g>
</svg>