<?xml version="1.0" encoding="UTF-8"?>
<svg width="83px" height="90px" viewBox="0 0 83 90" version="1.1" xmlns="http://www.w3.org/2000/svg" xmlns:xlink="http://www.w3.org/1999/xlink">
    <!-- Generator: Sketch 57.1 (83088) - https://sketch.com -->
    <title>Group 2</title>
    <desc>Created with Sketch.</desc>
    <g id="Page-1" stroke="none" stroke-width="1" fill="none" fill-rule="evenodd">
        <g id="Artboard" transform="translate(0.000000, -66.000000)">
            <g id="Group-2" transform="translate(0.000000, 66.000000)">
                <g id="rating" fill="#FAC586">
                    <polygon id="Path" points="7.5 11.25 3.09161 13.5676 3.93354 8.65881 0.367076 5.18237 5.29581 4.46619 7.5 0 9.7042 4.46619 14.6329 5.18237 11.0665 8.65881 11.9084 13.5676"></polygon>
                    <polygon id="Path" points="24.5 11.25 20.0916 13.5676 20.9335 8.65881 17.3671 5.18237 22.2958 4.46619 24.5 0 26.7042 4.46619 31.6329 5.18237 28.0665 8.65881 28.9084 13.5676"></polygon>
                    <polygon id="Path" points="41.5 11.25 37.0916 13.5676 37.9335 8.65881 34.3671 5.18237 39.2958 4.46619 41.5 0 43.7042 4.46619 48.6329 5.18237 45.0665 8.65881 45.9084 13.5676"></polygon>
                    <polygon id="Path" points="58.5 11.25 54.0916 13.5676 54.9335 8.65881 51.3671 5.18237 56.2958 4.46619 58.5 0 60.7042 4.46619 65.6329 5.18237 62.0665 8.65881 62.9084 13.5676"></polygon>
                    <polygon id="Path" points="75.5 11.25 71.0916 13.5676 71.9335 8.65881 68.3671 5.18237 73.2958 4.46619 75.5 0 77.7042 4.46619 82.6329 5.18237 79.0665 8.65881 79.9084 13.5676"></polygon>
                </g>
                <g id="rating" transform="translate(0.000000, 19.000000)">
                    <polygon id="Path" fill="#FAC586" points="7.5 11.25 3.09161 13.5676 3.93354 8.65881 0.367076 5.18237 5.29581 4.46619 7.5 0 9.7042 4.46619 14.6329 5.18237 11.0665 8.65881 11.9084 13.5676"></polygon>
                    <polygon id="Path" fill="#FAC586" points="24.5 11.25 20.0916 13.5676 20.9335 8.65881 17.3671 5.18237 22.2958 4.46619 24.5 0 26.7042 4.46619 31.6329 5.18237 28.0665 8.65881 28.9084 13.5676"></polygon>
                    <polygon id="Path" fill="#FAC586" points="41.5 11.25 37.0916 13.5676 37.9335 8.65881 34.3671 5.18237 39.2958 4.46619 41.5 0 43.7042 4.46619 48.6329 5.18237 45.0665 8.65881 45.9084 13.5676"></polygon>
                    <polygon id="Path" fill="#FAC586" points="58.5 11.25 54.0916 13.5676 54.9335 8.65881 51.3671 5.18237 56.2958 4.46619 58.5 0 60.7042 4.46619 65.6329 5.18237 62.0665 8.65881 62.9084 13.5676"></polygon>
                    <path d="M79.244341,12.6536024 L78.5292612,8.4842517 L81.5584298,5.53149182 L77.3721675,4.92319403 L75.5,1.1297743 L73.6278325,4.92319403 L69.4415702,5.53149182 L72.4707388,8.4842517 L71.755659,12.6536024 L75.5,10.6851139 L79.244341,12.6536024 Z" id="Path" stroke="#FAC586"></path>
                </g>
                <g id="rating" transform="translate(0.000000, 38.000000)" stroke="#FAC586">
                    <path d="M11.244341,12.6536024 L10.5292612,8.4842517 L13.5584298,5.53149182 L9.3721675,4.92319403 L7.50000102,1.12977636 L5.62784293,4.92319423 L1.44155842,5.53149105 L4.47078061,8.4842502 L3.75567593,12.6535977 L7.49999974,10.6851137 L11.244341,12.6536024 Z" id="Path" fill="#FAC586"></path>
                    <path d="M28.244341,12.6536024 L27.5292612,8.4842517 L30.5584298,5.53149182 L26.3721675,4.92319403 L24.5,1.1297743 L22.6278325,4.92319403 L18.4415702,5.53149182 L21.4707388,8.4842517 L20.755659,12.6536024 L24.5,10.6851139 L28.244341,12.6536024 Z" id="Path" fill="#FAC586"></path>
                    <path d="M45.244341,12.6536024 L44.5292612,8.4842517 L47.5584298,5.53149182 L43.3721675,4.92319403 L41.5,1.1297743 L39.6278325,4.92319403 L35.4415702,5.53149182 L38.4707388,8.4842517 L37.755659,12.6536024 L41.5,10.6851139 L45.244341,12.6536024 Z" id="Path" fill="#FAC586"></path>
                    <path d="M62.244341,12.6536024 L61.5292612,8.4842517 L64.5584298,5.53149182 L60.3721675,4.92319403 L58.5,1.1297743 L56.6278325,4.92319403 L52.4415702,5.53149182 L55.4707388,8.4842517 L54.755659,12.6536024 L58.5,10.6851139 L62.244341,12.6536024 Z" id="Path"></path>
                    <path d="M79.244341,12.6536024 L78.5292612,8.4842517 L81.5584298,5.53149182 L77.3721675,4.92319403 L75.5,1.1297743 L73.6278325,4.92319403 L69.4415702,5.53149182 L72.4707388,8.4842517 L71.755659,12.6536024 L75.5,10.6851139 L79.244341,12.6536024 Z" id="Path"></path>
                </g>
                <g id="rating" transform="translate(0.000000, 57.000000)" stroke="#FAC586">
                    <path d="M11.244341,12.6536024 L10.5292612,8.4842517 L13.5584298,5.53149182 L9.3721675,4.92319403 L7.50000102,1.12977636 L5.62784293,4.92319423 L1.44155842,5.53149105 L4.47078061,8.4842502 L3.75567593,12.6535977 L7.49999974,10.6851137 L11.244341,12.6536024 Z" id="Path" fill="#FAC586"></path>
                    <path d="M28.244341,12.6536024 L27.5292612,8.4842517 L30.5584298,5.53149182 L26.3721675,4.92319403 L24.5,1.1297743 L22.6278325,4.92319403 L18.4415702,5.53149182 L21.4707388,8.4842517 L20.755659,12.6536024 L24.5,10.6851139 L28.244341,12.6536024 Z" id="Path" fill="#FAC586"></path>
                    <path d="M45.244341,12.6536024 L44.5292612,8.4842517 L47.5584298,5.53149182 L43.3721675,4.92319403 L41.5,1.1297743 L39.6278325,4.92319403 L35.4415702,5.53149182 L38.4707388,8.4842517 L37.755659,12.6536024 L41.5,10.6851139 L45.244341,12.6536024 Z" id="Path"></path>
                    <path d="M62.244341,12.6536024 L61.5292612,8.4842517 L64.5584298,5.53149182 L60.3721675,4.92319403 L58.5,1.1297743 L56.6278325,4.92319403 L52.4415702,5.53149182 L55.4707388,8.4842517 L54.755659,12.6536024 L58.5,10.6851139 L62.244341,12.6536024 Z" id="Path"></path>
                    <path d="M79.244341,12.6536024 L78.5292612,8.4842517 L81.5584298,5.53149182 L77.3721675,4.92319403 L75.5,1.1297743 L73.6278325,4.92319403 L69.4415702,5.53149182 L72.4707388,8.4842517 L71.755659,12.6536024 L75.5,10.6851139 L79.244341,12.6536024 Z" id="Path"></path>
                </g>
                <g id="rating" transform="translate(0.000000, 76.000000)" stroke="#FAC586">
                    <path d="M11.244341,12.6536024 L10.5292612,8.4842517 L13.5584298,5.53149182 L9.3721675,4.92319403 L7.50000102,1.12977636 L5.62784293,4.92319423 L1.44155842,5.53149105 L4.47078061,8.4842502 L3.75567593,12.6535977 L7.49999974,10.6851137 L11.244341,12.6536024 Z" id="Path" fill="#FAC586"></path>
                    <path d="M28.240141,12.6536024 L27.5250612,8.4842517 L30.5542298,5.53149182 L26.3679675,4.92319403 L24.4958,1.1297743 L22.6236325,4.92319403 L18.4373702,5.53149182 L21.4665388,8.4842517 L20.751459,12.6536024 L24.4958,10.6851139 L28.240141,12.6536024 Z" id="Path"></path>
                    <path d="M45.235941,12.6536024 L44.5208612,8.4842517 L47.5500298,5.53149182 L43.3637675,4.92319403 L41.4916,1.1297743 L39.6194325,4.92319403 L35.4331702,5.53149182 L38.4623388,8.4842517 L37.747259,12.6536024 L41.4916,10.6851139 L45.235941,12.6536024 Z" id="Path"></path>
                    <path d="M62.231741,12.6536024 L61.5166612,8.4842517 L64.5458298,5.53149182 L60.3595675,4.92319403 L58.4874,1.1297743 L56.6152325,4.92319403 L52.4289702,5.53149182 L55.4581388,8.4842517 L54.743059,12.6536024 L58.4874,10.6851139 L62.231741,12.6536024 Z" id="Path"></path>
                    <path d="M79.227541,12.6536024 L78.5124612,8.4842517 L81.5416298,5.53149182 L77.3553675,4.92319403 L75.4832,1.1297743 L73.6110325,4.92319403 L69.4247702,5.53149182 L72.4539388,8.4842517 L71.738859,12.6536024 L75.4832,10.6851139 L79.227541,12.6536024 Z" id="Path"></path>
                </g>
            </g>
        </g>
    </g>
</svg>