<svg width="64" height="64" viewBox="0 0 64 64" fill="none" xmlns="http://www.w3.org/2000/svg">
<circle cx="32" cy="32" r="31" fill="white" stroke="white" stroke-width="2"/>
<mask id="mask0" mask-type="alpha" maskUnits="userSpaceOnUse" x="0" y="0" width="64" height="64">
<circle cx="32" cy="32" r="31" fill="white" stroke="white" stroke-width="2"/>
</mask>
<g mask="url(#mask0)">
<path fill-rule="evenodd" clip-rule="evenodd" d="M17.4687 25.125C21.0872 25.125 24.0313 22.181 24.0313 18.5625C24.0313 14.944 21.0872 12 17.4687 12C13.8503 12 10.9063 14.944 10.9063 18.5625C10.9063 22.181 13.8503 25.125 17.4687 25.125ZM17.4687 13.875C20.0533 13.875 22.1563 15.9778 22.1563 18.5625C22.1563 21.1472 20.0533 23.25 17.4687 23.25C14.8842 23.25 12.7813 21.1472 12.7813 18.5625C12.7813 15.9778 14.8842 13.875 17.4687 13.875ZM43.3125 26.6875C43.3125 27.205 42.8925 27.625 42.375 27.625C41.8575 27.625 41.4375 27.205 41.4375 26.6875C41.4375 26.17 41.8575 25.75 42.375 25.75C42.8925 25.75 43.3125 26.17 43.3125 26.6875ZM63.0768 24.5163L64.9518 30.1413C64.9837 30.2363 65 30.3367 65 30.4375V75.0625C65 75.58 64.58 76 64.0625 76H1.9375C1.42 76 1 75.58 1 75.0625V37.5625C1 37.045 1.42 36.625 1.9375 36.625C16.276 36.625 25.5365 39.42 32.0625 42.056V30.4375C32.0625 30.3367 32.0788 30.2363 32.1107 30.1413L33.9857 24.5163C34.0645 24.28 34.233 24.0853 34.4557 23.974L41.9557 20.224C42.0878 20.1575 42.2318 20.125 42.3763 20.125H54.6875C54.8333 20.125 54.9765 20.1588 55.1068 20.224L62.6068 23.974C62.8295 24.0853 62.998 24.28 63.0768 24.5163ZM9.43617 68.1732C8.95767 68.1732 8.54883 67.808 8.50383 67.3217C8.45633 66.806 8.836 66.3497 9.3515 66.302C19.937 65.3283 26.0833 62.3607 32.5896 59.2192L32.5918 59.2182C40.1673 55.5598 47.9973 51.7807 63.125 51.6302V49.7552C47.4668 49.905 39.3985 53.8002 31.5912 57.5703C24.108 61.1837 17.03 64.6003 2.875 64.7448V66.6205C3.81317 66.6107 4.74283 66.5867 5.64783 66.5482C6.16667 66.5247 6.60217 66.9277 6.62433 67.4453C6.64583 67.9628 6.24417 68.3997 5.72717 68.4212C4.7955 68.461 3.83983 68.4857 2.875 68.4955V70.3698C18.5332 70.22 26.6022 66.3248 34.4088 62.5547C41.892 58.9413 48.97 55.5247 63.125 55.3802V53.5052C48.4388 53.6492 41.1322 57.1765 33.4068 60.9068L33.4062 60.9071C27.0354 63.9832 20.4477 67.164 9.5235 68.17C9.49417 68.1725 9.46483 68.1732 9.43617 68.1732ZM35.2247 64.2428C27.2272 68.1055 18.9617 72.0957 2.875 72.2455V74.1205C19.4043 73.9642 28.233 69.7018 36.039 65.9323C43.4317 62.3627 49.8398 59.2695 63.125 59.1302V57.2552C49.3985 57.4003 42.5085 60.7258 35.2247 64.2428ZM2.875 44.1322C10.4447 44.2025 17.1328 45.1263 23.278 46.9498C24.0659 46.5787 24.8662 46.1924 25.6944 45.7927L25.698 45.791C25.7112 45.7848 25.7243 45.7784 25.7377 45.7719C25.7441 45.7687 25.7506 45.7655 25.7572 45.7623C24.9922 45.5078 24.233 45.2708 23.4675 45.0482C17.2473 43.2397 10.5007 42.3262 2.875 42.2565V44.1322ZM17.543 49.3508C18.5918 48.987 19.6042 48.5867 20.612 48.1557C15.2278 46.7735 9.39 46.069 2.875 46.0072V47.8802C8.26433 47.9297 13.0742 48.4133 17.543 49.3508ZM2.875 51.6192C7.14583 51.5697 10.5103 51.1777 13.4265 50.5242C10.1492 50.045 6.66083 49.791 2.875 49.7552V51.6192ZM26.5153 47.4784L26.5137 47.4792C19.4648 50.8828 14.3197 53.3665 2.875 53.4942V55.3692C14.864 55.2357 20.4682 52.5307 27.5143 49.1277L27.5194 49.1252C31.5793 47.1648 36.1814 44.9426 42.0085 43.248C48.4003 41.3893 55.319 40.4512 63.125 40.3815V38.5045C44.7669 38.6653 34.6615 43.5449 26.5153 47.4784ZM40.5 39.7603C41.6953 39.4063 42.9433 39.0717 44.25 38.7623V31.375H40.5V39.7603ZM63.125 31.375H52.6875V37.2742C55.8548 36.8925 59.3158 36.6615 63.125 36.6288V31.375ZM42.5325 45.0482C36.8528 46.7005 32.3248 48.8867 28.33 50.8163C21.0663 54.3235 15.291 57.1113 2.875 57.2448V59.1192C15.733 58.9798 21.961 55.974 29.1452 52.5045C37.1328 48.6472 46.1673 44.2852 63.125 44.1295V42.2565C55.4993 42.3262 48.7527 43.2397 42.5325 45.0482ZM63.125 46.0045C46.5957 46.1608 37.767 50.4232 29.961 54.1927C22.569 57.7623 16.1608 60.8555 2.875 60.9948V62.8698C16.6022 62.7247 23.4922 59.3985 30.7753 55.8815C38.7728 52.0195 47.0383 48.0293 63.125 47.8795V46.0045ZM62.7617 29.5L61.4205 25.4772L54.4662 22H46.3463L50.2943 23.974C50.517 24.0853 50.6855 24.28 50.7643 24.5163L52.4258 29.5H62.7617ZM42.375 22.1107L35.642 25.4772L33.9375 30.5898V42.0553C35.4095 41.4622 36.9655 40.886 38.625 40.3437V30.4375C38.625 29.92 39.045 29.5 39.5625 29.5H45.1875C45.705 29.5 46.125 29.92 46.125 30.4375V38.345C47.6107 38.0352 49.1705 37.7578 50.8125 37.5215V30.5898L49.108 25.4772L42.375 22.1107ZM28.1543 44.6127C28.942 44.2397 29.752 43.8633 30.5872 43.4877C24.4153 41.0697 15.8138 38.6172 2.875 38.5045V40.3822C10.681 40.4512 17.5997 41.3893 23.9915 43.248C25.3763 43.651 26.7428 44.099 28.1543 44.6127ZM63.125 61.0052C50.2675 61.1445 44.039 64.151 36.8555 67.6198C32.03 69.9505 26.823 72.4648 19.7182 74.125H26.4545C30.7852 72.6328 34.4413 70.8678 37.67 69.3087C44.9337 65.8015 50.709 63.0137 63.125 62.8802V61.0052ZM36.3893 74.125C37.4577 73.625 38.489 73.1277 39.4863 72.6458C46.5352 69.2422 51.6803 66.7585 63.125 66.6308V64.7558C51.1367 64.8893 45.5318 67.5943 38.485 70.9973C36.4167 71.9962 34.1758 73.0782 31.6888 74.125H36.3893ZM63.125 70.3808V68.5058C52.3425 68.6315 47.3398 70.9382 40.735 74.125H45.1413C50.252 71.8347 54.9348 70.4765 63.125 70.3808ZM63.125 72.2565C57.614 72.323 53.763 72.9825 50.2695 74.125H63.125V72.2565Z" fill="#979590"/>
</g>
</svg>
